<?xml version="1.0" encoding="utf-8"?>
<!-- Generator: Adobe Illustrator 25.0.0, SVG Export Plug-In . SVG Version: 6.00 Build 0)  -->
<svg version="1.1" id="Layer_1" xmlns="http://www.w3.org/2000/svg" xmlns:xlink="http://www.w3.org/1999/xlink" x="0px" y="0px"
	 width="782.5px" height="264.1px" viewBox="0 0 782.5 264.1" style="enable-background:new 0 0 782.5 264.1;" xml:space="preserve"
	>
<style type="text/css">
	.st0{fill:#7567F8;}
	.st1{fill:#ADB5BA;}
	.st2{fill:#FFFFFF;}
</style>
<g id="Layer_2_1_">
	<g id="Infographics">
		<rect x="626.5" y="6.9" class="st0" width="17.5" height="50.3"/>
		<rect x="646.4" class="st1" width="17.5" height="57.1"/>
		<rect x="686.1" y="18.9" class="st1" width="17.5" height="38.2"/>
		<rect x="666.2" y="32.1" class="st1" width="17.5" height="25"/>
		<path class="st2" d="M586.6,99.7c0.1,3.7-0.9,7.4-2.7,10.7c-1.7,3-4.2,5.6-7.2,7.3c3.5,1.8,6.4,4.5,8.4,7.9c2,3.6,3.1,7.6,3,11.7
			c0,6.9-2,12.4-5.9,16.6s-9.1,6.2-15.6,6.2s-11.6-2.1-15.6-6.2s-5.9-9.7-5.9-16.6c-0.1-4.1,1-8.2,3-11.8c1.9-3.4,4.7-6.1,8.2-7.8
			c-3-1.7-5.5-4.3-7.1-7.3c-1.8-3.3-2.7-6.9-2.6-10.7c0-6.8,1.8-12.1,5.5-16.1s8.5-6,14.5-6c5.9,0,10.7,2,14.4,5.9
			C584.7,87.4,586.6,92.8,586.6,99.7z M578.4,137.1c0-4.6-1.1-8.3-3.2-11.1c-2-2.7-5.2-4.2-8.5-4.2c-3.4-0.1-6.6,1.5-8.5,4.2
			c-2.1,2.8-3.1,6.5-3.1,11c0,4.5,1,8.2,3,10.8c2.1,2.6,5.3,4,8.7,3.9c3.8,0,6.6-1.3,8.7-3.9C577.3,145.3,578.4,141.7,578.4,137.1z
			 M576.9,99.9c0.2-3.6-0.8-7.1-2.9-10c-2.8-4.1-8.4-5.1-12.5-2.3c-0.9,0.6-1.6,1.4-2.3,2.2c-1.8,2.5-2.8,5.9-2.8,10s0.9,7.5,2.8,10
			c3.1,4.1,8.9,4.9,12.9,1.8c0.7-0.5,1.4-1.2,1.9-1.9C576,107.2,576.9,104,576.9,99.9z"/>
		<path class="st2" d="M645.9,159H601v-7.3l22.9-30.3c2.8-3.6,5.2-7.4,7.2-11.5c1.3-3,2-6.2,2-9.5c0-4.3-1-7.7-3-10.3
			c-1.8-2.6-4.7-4.1-7.8-4c-4.1,0-7.2,1.4-9.5,4.2c-2.2,2.8-3.3,6.9-3.3,12.2h-9.8c0-7.4,2-13.3,6.1-17.9c4-4.6,9.5-6.8,16.5-6.8
			c6.4,0,11.4,2,15.1,5.9s5.5,9.1,5.5,15.6c0,7.9-4.1,17.3-12.4,28.2l-17.8,23.4h33.2V159z"/>
		<path class="st2" d="M660.7,118.8l3.5-40H699v9.4h-26.6l-1.9,21.9c3.1-2.3,6.8-3.5,10.7-3.5c5.8-0.2,11.3,2.5,14.7,7.3
			c3.6,4.8,5.4,11.4,5.3,19.6c0,8.3-1.9,14.8-5.8,19.6c-3.9,4.7-9.2,7.1-16,7.1c-6,0-10.9-2-14.7-5.9c-3.8-3.9-6-9.4-6.5-16.3h9.1
			c0.6,4.6,1.9,8,3.9,10.4c2,2.3,5,3.6,8.1,3.5c3.6,0.1,7-1.8,8.9-4.9c2.1-3.3,3.2-7.7,3.2-13.3c0-5.3-1.2-9.5-3.4-12.8
			c-2-3.2-5.5-5.1-9.3-5c-2.8-0.1-5.6,0.8-7.8,2.5l-2.6,2.6L660.7,118.8z"/>
		<path class="st2" d="M727.6,78.8l20.9,65.4l20.9-65.4h13V159h-10.1v-31.3l0.9-31.3l-21,62.5h-7.7l-20.9-62.3l0.9,31.1V159h-10.1
			V78.8H727.6z"/>
		<path class="st2" d="M585.6,184c0,0.5-0.1,1-0.3,1.4c-0.2,0.4-0.5,0.7-0.9,0.9c0.4,0.2,0.8,0.6,1.1,1c0.3,0.5,0.4,1,0.4,1.5
			c0,0.8-0.2,1.5-0.8,2.1c-1.1,1.1-2.9,1.1-4,0c-0.8-1-1-2.5-0.4-3.6c0.2-0.4,0.6-0.8,1-1c-0.4-0.2-0.7-0.5-0.9-0.9
			c-0.2-0.4-0.3-0.9-0.3-1.4c0-0.8,0.2-1.5,0.7-2.1c1-1,2.7-1,3.7,0C585.4,182.5,585.7,183.2,585.6,184z M584.6,188.8
			c0-0.5-0.1-1-0.4-1.4c-0.3-0.3-0.7-0.5-1.1-0.5c-0.4,0-0.8,0.2-1.1,0.5c-0.3,0.4-0.4,0.9-0.4,1.4c0,0.5,0.1,1,0.4,1.4
			c0.3,0.3,0.7,0.5,1.1,0.5c0.4,0,0.8-0.2,1.1-0.5C584.5,189.8,584.6,189.3,584.6,188.8L584.6,188.8z M584.4,184
			c0-0.5-0.1-0.9-0.4-1.3c-0.4-0.5-1.1-0.7-1.6-0.3c-0.1,0.1-0.2,0.2-0.3,0.3c-0.2,0.4-0.4,0.8-0.3,1.3c0,0.5,0.1,0.9,0.4,1.3
			c0.2,0.3,0.6,0.5,1,0.5c0.4,0,0.8-0.2,1-0.5C584.4,184.9,584.5,184.4,584.4,184L584.4,184z"/>
		<path class="st2" d="M593.2,191.6h-5.8v-0.9l2.9-3.9c0.4-0.5,0.7-1,0.9-1.5c0.2-0.4,0.3-0.8,0.3-1.2c0-0.5-0.1-0.9-0.4-1.3
			c-0.2-0.3-0.6-0.5-1-0.5c-0.5,0-0.9,0.2-1.2,0.5c-0.3,0.5-0.5,1-0.4,1.6h-1.2c0-0.8,0.2-1.7,0.8-2.3c0.5-0.6,1.3-0.9,2.1-0.9
			c0.7,0,1.4,0.2,1.9,0.8c0.5,0.5,0.7,1.3,0.7,2c-0.1,1.3-0.7,2.6-1.6,3.6l-2.3,3h4.3L593.2,191.6z"/>
		<path class="st2" d="M595.2,186.4l0.4-5.1h4.5v1.2h-3.4l-0.2,2.8c0.4-0.3,0.9-0.4,1.4-0.4c0.7,0,1.5,0.3,1.9,0.9
			c0.5,0.7,0.7,1.6,0.7,2.5c0.1,0.9-0.2,1.8-0.8,2.5c-1,1.1-2.8,1.2-3.9,0.2c0,0,0,0,0,0c-0.5-0.6-0.8-1.3-0.8-2.1h1.2
			c0,0.5,0.2,1,0.5,1.3c0.3,0.3,0.7,0.5,1,0.4c0.5,0,0.9-0.2,1.1-0.6c0.3-0.5,0.4-1.1,0.4-1.7c0-0.6-0.1-1.2-0.4-1.6
			c-0.3-0.4-0.7-0.6-1.2-0.6c-0.4,0-0.7,0.1-1,0.3l-0.3,0.3L595.2,186.4z"/>
		<path class="st2" d="M606.4,183.9v0.7c0.5-0.6,1.1-0.9,1.8-0.9c0.8,0,1.5,0.4,1.8,1.1c0.4-0.7,1.2-1.1,2-1.1
			c1.4,0,2.1,0.9,2.2,2.6v5.2H613v-5c0-0.4-0.1-0.9-0.3-1.2c-0.2-0.3-0.6-0.4-1-0.4c-0.4,0-0.7,0.2-0.9,0.4
			c-0.2,0.3-0.4,0.7-0.4,1.1v5.1h-1.3v-5.1c0-1.1-0.4-1.6-1.3-1.6c-0.6,0-1.2,0.4-1.3,0.9v5.7h-1.2v-7.7H606.4z"/>
		<path class="st2" d="M617.6,181.9c0,0.2-0.1,0.4-0.2,0.5c-0.1,0.2-0.3,0.2-0.5,0.2c-0.2,0-0.4-0.1-0.5-0.2
			c-0.1-0.1-0.2-0.3-0.2-0.5c0-0.2,0.1-0.4,0.2-0.5c0.3-0.3,0.8-0.3,1.1,0C617.5,181.5,617.6,181.7,617.6,181.9z M617.5,191.6h-1.3
			v-7.7h1.3V191.6z"/>
		<path class="st2" d="M620.8,191.6h-1.3v-10.9h1.3V191.6z"/>
		<path class="st2" d="M624.1,191.6h-1.2v-10.9h1.2V191.6z"/>
		<path class="st2" d="M627.5,181.9c0,0.2-0.1,0.4-0.2,0.5c-0.1,0.2-0.3,0.2-0.5,0.2c-0.2,0-0.4-0.1-0.5-0.2
			c-0.1-0.1-0.2-0.3-0.2-0.5c0-0.2,0.1-0.4,0.2-0.5c0.1-0.1,0.3-0.2,0.5-0.2c0.2,0,0.4,0.1,0.5,0.2
			C627.5,181.5,627.5,181.7,627.5,181.9z M627.4,191.6h-1.2v-7.7h1.2V191.6z"/>
		<path class="st2" d="M629.2,187.4c-0.1-0.9,0.2-1.9,0.8-2.6c0.5-0.7,1.3-1,2.1-1c0.8,0,1.6,0.4,2.1,1c0.6,0.7,0.9,1.6,0.8,2.6v0.8
			c0.1,0.9-0.2,1.9-0.8,2.6c-1.1,1.2-2.9,1.3-4.1,0.2c-0.1-0.1-0.1-0.1-0.2-0.2c-0.6-0.7-0.9-1.6-0.8-2.5L629.2,187.4z M630.4,188.1
			c0,0.7,0.1,1.3,0.5,1.9c0.3,0.4,0.7,0.7,1.2,0.7c1.1,0,1.7-0.8,1.7-2.4v-0.9c0-0.7-0.1-1.3-0.5-1.9c-0.3-0.4-0.7-0.7-1.2-0.7
			c-0.5,0-1,0.3-1.2,0.7c-0.3,0.6-0.5,1.2-0.5,1.9L630.4,188.1z"/>
		<path class="st2" d="M637.9,183.9v0.8c0.4-0.6,1.1-1,1.9-1c1.3,0,2,0.9,2.1,2.7v5.1h-1.2v-5c0-0.4-0.1-0.9-0.3-1.3
			c-0.2-0.3-0.6-0.4-0.9-0.4c-0.3,0-0.6,0.1-0.8,0.3c-0.3,0.2-0.5,0.5-0.6,0.8v5.6h-1.2v-7.7H637.9z"/>
		<path class="st2" d="M652.7,189.4l1.2-5.5h1.2l-1.9,7.7h-1l-1.5-5.5l-1.5,5.5h-1l-1.9-7.7h1.2l1.2,5.3l1.4-5.3h1L652.7,189.4z"/>
		<path class="st2" d="M657.9,181.9c0,0.2-0.1,0.4-0.2,0.5c-0.1,0.2-0.3,0.2-0.5,0.2c-0.2,0-0.4-0.1-0.5-0.2
			c-0.1-0.1-0.2-0.3-0.2-0.5c0-0.2,0.1-0.4,0.2-0.5c0.1-0.1,0.3-0.2,0.5-0.2c0.2,0,0.4,0.1,0.5,0.2
			C657.8,181.5,657.9,181.7,657.9,181.9z M657.8,191.6h-1.2v-7.7h1.2V191.6z"/>
		<path class="st2" d="M661.1,191.6h-1.2v-10.9h1.2V191.6z"/>
		<path class="st2" d="M664.4,191.6h-1.2v-10.9h1.2V191.6z"/>
		<path class="st2" d="M670.9,183.9v0.8c0.4-0.6,1.1-1,1.9-1c1.3,0,2,0.9,2.1,2.7v5.1h-1.2v-5c0-0.4-0.1-0.9-0.3-1.3
			c-0.2-0.3-0.6-0.4-0.9-0.4c-0.3,0-0.6,0.1-0.8,0.3c-0.3,0.2-0.5,0.5-0.6,0.8v5.6h-1.2v-7.7H670.9z"/>
		<path class="st2" d="M676.5,187.4c-0.1-0.9,0.2-1.9,0.8-2.6c0.5-0.6,1.3-1,2.1-1c0.8,0,1.6,0.4,2.2,1c0.6,0.7,0.9,1.6,0.8,2.6v0.8
			c0.1,0.9-0.2,1.9-0.8,2.6c-1.1,1.2-2.9,1.3-4.1,0.2c-0.1-0.1-0.1-0.1-0.2-0.2c-0.6-0.7-0.9-1.6-0.8-2.5L676.5,187.4z M677.7,188.1
			c0,0.7,0.1,1.3,0.5,1.9c0.3,0.4,0.7,0.7,1.2,0.7c1.1,0,1.7-0.8,1.7-2.4v-0.9c0-0.7-0.1-1.3-0.5-1.9c-0.3-0.4-0.8-0.7-1.3-0.7
			c-0.5,0-1,0.3-1.2,0.7c-0.3,0.6-0.5,1.2-0.5,1.9V188.1z"/>
		<path class="st2" d="M685.7,182.1v1.9h1.2v1h-1.2v4.8c0,0.2,0,0.5,0.2,0.7c0.1,0.2,0.3,0.3,0.5,0.2c0.2,0,0.3,0,0.5-0.1v1.1
			c-0.3,0.1-0.6,0.1-0.9,0.1c-0.4,0-0.9-0.2-1.1-0.5c-0.3-0.4-0.4-1-0.4-1.5V185h-1.2v-1h1.2v-1.9L685.7,182.1z"/>
		<path class="st2" d="M695.6,191.6c-0.1-0.3-0.2-0.5-0.2-0.8c-0.4,0.6-1,1-1.7,1c-0.6,0-1.2-0.2-1.6-0.6c-0.4-0.4-0.6-1-0.6-1.6
			c0-0.7,0.3-1.4,0.8-1.9c0.6-0.5,1.4-0.7,2.2-0.7h0.9v-0.8c0.1-0.6-0.3-1.1-0.8-1.3c-0.1,0-0.3,0-0.4,0c-0.3,0-0.7,0.1-0.9,0.3
			c-0.2,0.2-0.4,0.5-0.3,0.9h-1.3c0-0.4,0.1-0.8,0.3-1.1c0.2-0.4,0.5-0.6,0.9-0.8c0.4-0.2,0.9-0.3,1.3-0.3c0.7,0,1.3,0.2,1.8,0.6
			c0.4,0.5,0.7,1.1,0.6,1.7v3.9c0,0.5,0.1,1,0.2,1.5v0.1L695.6,191.6z M693.9,190.6c0.3,0,0.6-0.1,0.9-0.3c0.3-0.2,0.5-0.4,0.6-0.6
			v-1.8h-0.7c-0.5,0-1,0.1-1.4,0.4c-0.3,0.3-0.5,0.7-0.5,1.1c0,0.3,0.1,0.7,0.3,0.9C693.2,190.5,693.6,190.6,693.9,190.6
			L693.9,190.6z"/>
		<path class="st2" d="M701.2,190.7c0.4,0,0.7-0.1,1-0.4c0.3-0.3,0.4-0.7,0.4-1.1h1.2c0,0.7-0.3,1.3-0.8,1.8
			c-0.5,0.5-1.1,0.7-1.8,0.7c-0.8,0.1-1.6-0.3-2.2-0.9c-0.6-0.8-0.8-1.7-0.8-2.7v-0.8c-0.1-0.9,0.2-1.9,0.7-2.6
			c0.5-0.6,1.3-1,2.2-0.9c0.7,0,1.4,0.2,1.9,0.8c0.5,0.6,0.7,1.3,0.7,2h-1.2c0-0.5-0.1-0.9-0.4-1.3c-0.3-0.3-0.6-0.4-1-0.4
			c-0.5,0-0.9,0.2-1.2,0.6c-0.3,0.5-0.5,1.2-0.4,1.8v1c-0.1,0.7,0.1,1.3,0.4,1.9C700.2,190.5,700.7,190.7,701.2,190.7z"/>
		<path class="st2" d="M705,187.4c-0.1-0.9,0.2-1.9,0.7-2.7c0.4-0.6,1.2-1,1.9-0.9c0.7,0,1.3,0.3,1.7,0.9l0.1-0.8h1.1v10.6h-1.2
			v-3.6c-0.4,0.5-1,0.8-1.7,0.8c-0.7,0-1.5-0.3-1.9-0.9c-0.5-0.8-0.7-1.7-0.7-2.6V187.4z M706.2,188.1c0,0.7,0.1,1.3,0.4,1.9
			c0.3,0.4,0.8,0.7,1.3,0.6c0.6,0,1.1-0.3,1.4-0.9v-4.1c-0.3-0.5-0.8-0.8-1.3-0.9c-0.5,0-1,0.2-1.3,0.6c-0.3,0.6-0.4,1.2-0.4,1.9
			L706.2,188.1z"/>
		<path class="st2" d="M716.4,190.9c-0.4,0.5-1.1,0.9-1.8,0.8c-0.6,0-1.2-0.2-1.6-0.7c-0.4-0.6-0.6-1.4-0.5-2.1v-5h1.2v4.9
			c0,1.2,0.4,1.8,1.1,1.8c0.7,0,1.3-0.4,1.6-1v-5.7h1.2v7.7h-1.2V190.9z"/>
		<path class="st2" d="M721,181.9c0,0.2-0.1,0.4-0.2,0.5c-0.1,0.2-0.3,0.2-0.5,0.2c-0.2,0-0.4-0.1-0.5-0.2c-0.1-0.1-0.2-0.3-0.2-0.5
			c0-0.2,0.1-0.4,0.2-0.5c0.1-0.1,0.3-0.2,0.5-0.2c0.2,0,0.4,0.1,0.5,0.2C720.9,181.5,721,181.7,721,181.9z M720.9,191.6h-1.3v-7.7
			h1.3V191.6z"/>
		<path class="st2" d="M726,185.1c-0.2,0-0.4,0-0.6-0.1c-0.6,0-1.2,0.4-1.3,1.1v5.5h-1.3v-7.7h1.2v0.8c0.3-0.6,0.8-0.9,1.4-0.9
			c0.2,0,0.3,0,0.5,0.1L726,185.1z"/>
		<path class="st2" d="M729.8,191.7c-0.8,0.1-1.6-0.3-2.2-0.9c-0.6-0.7-0.8-1.6-0.8-2.5v-0.9c-0.1-1,0.2-1.9,0.7-2.7
			c0.5-0.7,1.3-1,2.1-1c0.8,0,1.5,0.3,2,0.9c0.5,0.8,0.7,1.7,0.7,2.7v0.8h-4.3v0.2c-0.1,0.6,0.1,1.3,0.5,1.8
			c0.3,0.4,0.8,0.6,1.3,0.6c0.3,0,0.7-0.1,1-0.2c0.3-0.2,0.6-0.4,0.8-0.7l0.7,0.8C731.8,191.4,730.8,191.8,729.8,191.7z
			 M729.7,184.9c-0.5,0-0.9,0.2-1.2,0.5c-0.3,0.5-0.4,1.1-0.4,1.7h3v-0.2c0-0.5-0.1-1.1-0.4-1.6C730.5,185,730.1,184.8,729.7,184.9
			L729.7,184.9z"/>
		<path class="st2" d="M586,211.3c0.1,0.9-0.2,1.9-0.7,2.7c-0.4,0.6-1.1,1-1.9,0.9c-0.8,0-1.5-0.4-1.8-1.1l-0.1,0.9h-1.1v-10.9h1.2
			v4.1c0.4-0.6,1-1,1.8-1c0.7,0,1.5,0.3,1.9,0.9c0.5,0.8,0.7,1.7,0.6,2.7V211.3z M584.8,210.6c0.1-0.7-0.1-1.3-0.4-1.9
			c-0.3-0.4-0.7-0.6-1.2-0.6c-0.7,0-1.2,0.4-1.5,1.1v3.6c0.2,0.6,0.8,1,1.5,1c0.5,0,1-0.2,1.2-0.6c0.3-0.6,0.4-1.2,0.4-1.8V210.6z"
			/>
		<path class="st2" d="M591.5,214.8c-0.1-0.3-0.1-0.6-0.2-0.8c-0.4,0.6-1,1-1.7,1c-1.1,0.1-2.1-0.7-2.2-1.8c0-0.2,0-0.3,0-0.5
			c0-0.7,0.3-1.4,0.8-1.9c0.6-0.5,1.4-0.7,2.2-0.7h0.9v-0.8c0-0.7-0.6-1.3-1.3-1.3c-0.3,0-0.6,0.1-0.9,0.3c-0.2,0.2-0.4,0.5-0.4,0.9
			h-1.2c0-0.4,0.1-0.8,0.3-1.1c0.2-0.4,0.5-0.6,0.9-0.8c0.4-0.2,0.9-0.3,1.3-0.3c0.6,0,1.3,0.2,1.8,0.6c0.4,0.5,0.7,1.1,0.6,1.7v3.9
			c0,0.5,0.1,1,0.2,1.5v0.1L591.5,214.8z M589.9,213.8c0.3,0,0.6-0.1,0.9-0.3c0.3-0.1,0.5-0.4,0.6-0.6v-1.8h-0.7
			c-0.5,0-1,0.1-1.4,0.4c-0.3,0.3-0.5,0.7-0.5,1.1c0,0.3,0.1,0.7,0.3,0.9C589.2,213.7,589.5,213.8,589.9,213.8L589.9,213.8z"/>
		<path class="st2" d="M598.2,212.8c0-0.3-0.1-0.5-0.3-0.7c-0.4-0.3-0.7-0.5-1.2-0.7c-0.5-0.2-1-0.4-1.4-0.7
			c-0.3-0.2-0.5-0.4-0.6-0.7c-0.1-0.3-0.2-0.6-0.2-0.9c0-0.6,0.2-1.2,0.7-1.6c1-0.8,2.5-0.8,3.5,0c0.5,0.4,0.7,1,0.7,1.7h-1.2
			c0-0.3-0.1-0.6-0.3-0.9c-0.2-0.2-0.6-0.4-0.9-0.4c-0.3,0-0.6,0.1-0.9,0.3c-0.2,0.2-0.3,0.5-0.3,0.8c0,0.2,0.1,0.5,0.2,0.6
			c0.3,0.3,0.7,0.5,1.1,0.6c0.7,0.2,1.3,0.6,1.9,1.1c0.3,0.4,0.5,0.8,0.5,1.3c0,0.6-0.2,1.2-0.7,1.6c-0.5,0.4-1.2,0.6-1.8,0.6
			c-0.7,0-1.4-0.2-1.9-0.7c-0.5-0.4-0.8-1.1-0.7-1.7h1.3c0,0.4,0.1,0.7,0.4,1c0.6,0.5,1.4,0.5,2,0.1
			C598.2,213.4,598.3,213.1,598.2,212.8z"/>
		<path class="st2" d="M602.6,205.1c0,0.2-0.1,0.4-0.2,0.5c-0.1,0.1-0.3,0.2-0.5,0.2c-0.2,0-0.4-0.1-0.5-0.2
			c-0.1-0.2-0.2-0.3-0.2-0.5c0-0.2,0.1-0.4,0.2-0.5c0.1-0.2,0.3-0.2,0.5-0.2c0.2,0,0.4,0.1,0.5,0.2
			C602.5,204.7,602.6,204.9,602.6,205.1z M602.5,214.8h-1.2v-7.7h1.2V214.8z"/>
		<path class="st2" d="M607.1,213.9c0.4,0,0.7-0.1,1-0.4c0.3-0.3,0.4-0.7,0.4-1.1h1.2c0,0.7-0.3,1.3-0.8,1.8
			c-0.5,0.5-1.1,0.7-1.8,0.7c-0.8,0-1.6-0.3-2.1-0.9c-0.6-0.8-0.8-1.7-0.8-2.7v-0.8c-0.1-0.9,0.2-1.9,0.7-2.6c0.5-0.6,1.3-1,2.2-0.9
			c0.7,0,1.4,0.2,1.9,0.7c0.5,0.6,0.7,1.3,0.7,2h-1.2c0-0.5-0.1-0.9-0.4-1.3c-0.2-0.3-0.6-0.4-1-0.4c-0.5,0-0.9,0.2-1.2,0.6
			c-0.3,0.5-0.5,1.2-0.4,1.8v1c-0.1,0.7,0.1,1.3,0.4,1.9C606.2,213.6,606.6,213.9,607.1,213.9z"/>
		<path class="st2" d="M618.2,212.8c0-0.3-0.1-0.5-0.3-0.7c-0.4-0.3-0.8-0.5-1.2-0.7c-0.5-0.2-1-0.4-1.4-0.7
			c-0.3-0.2-0.5-0.4-0.6-0.7c-0.1-0.3-0.2-0.6-0.2-0.9c0-0.6,0.2-1.2,0.7-1.6c1-0.8,2.5-0.8,3.5,0c0.5,0.4,0.7,1,0.7,1.7h-1.2
			c0-0.3-0.1-0.6-0.3-0.9c-0.2-0.2-0.6-0.4-0.9-0.4c-0.3,0-0.6,0.1-0.9,0.3c-0.2,0.2-0.3,0.5-0.3,0.8c0,0.2,0.1,0.5,0.2,0.6
			c0.3,0.3,0.7,0.5,1.1,0.6c0.7,0.2,1.3,0.6,1.9,1.1c0.3,0.4,0.5,0.8,0.5,1.3c0,0.6-0.2,1.2-0.7,1.6c-0.5,0.4-1.2,0.6-1.8,0.6
			c-0.7,0-1.4-0.2-1.9-0.7c-0.5-0.4-0.8-1.1-0.7-1.7h1.3c0,0.4,0.1,0.7,0.4,1c0.6,0.5,1.4,0.5,2,0.1
			C618.1,213.4,618.2,213.1,618.2,212.8z"/>
		<path class="st2" d="M623.8,214.9c-0.8,0.1-1.6-0.3-2.2-0.9c-0.6-0.7-0.8-1.6-0.8-2.5v-0.9c-0.1-1,0.2-1.9,0.8-2.7
			c0.5-0.7,1.3-1,2.1-1c0.8-0.1,1.5,0.3,2,0.9c0.5,0.8,0.7,1.7,0.7,2.7v0.8h-4.3v0.2c-0.1,0.6,0.1,1.3,0.5,1.8
			c0.3,0.4,0.8,0.6,1.3,0.6c0.3,0,0.7-0.1,1-0.2c0.3-0.2,0.6-0.4,0.8-0.7l0.7,0.8C625.7,214.6,624.8,215,623.8,214.9z M623.7,208.1
			c-0.5,0-0.9,0.2-1.2,0.5c-0.3,0.5-0.4,1.1-0.4,1.7h3v-0.2c0-0.5-0.1-1.1-0.4-1.6C624.5,208.2,624.1,208,623.7,208.1z"/>
		<path class="st2" d="M630.5,213.9c0.4,0,0.7-0.1,1-0.4c0.3-0.3,0.4-0.7,0.4-1.1h1.2c0,0.7-0.3,1.4-0.8,1.8
			c-0.5,0.5-1.1,0.7-1.8,0.7c-0.8,0.1-1.6-0.3-2.2-0.9c-0.6-0.8-0.8-1.7-0.8-2.7v-0.8c-0.1-0.9,0.2-1.9,0.7-2.6
			c0.5-0.6,1.3-1,2.2-0.9c0.7,0,1.4,0.2,1.9,0.7c0.5,0.6,0.7,1.3,0.7,2h-1.2c0-0.5-0.1-0.9-0.4-1.3c-0.3-0.3-0.6-0.4-1-0.4
			c-0.5,0-0.9,0.2-1.2,0.6c-0.3,0.5-0.5,1.2-0.4,1.8v1c-0.1,0.7,0.1,1.3,0.4,1.9C629.6,213.7,630,213.9,630.5,213.9z"/>
		<path class="st2" d="M634.3,210.6c-0.1-0.9,0.2-1.9,0.8-2.6c1.1-1.2,2.9-1.3,4.1-0.2c0.1,0.1,0.2,0.1,0.2,0.2
			c0.6,0.7,0.9,1.6,0.8,2.6v0.8c0.1,0.9-0.2,1.9-0.8,2.6c-1.1,1.2-2.9,1.3-4.1,0.2c-0.1-0.1-0.1-0.1-0.2-0.2
			c-0.6-0.7-0.9-1.6-0.8-2.6L634.3,210.6z M635.5,211.3c0,0.6,0.1,1.3,0.5,1.9c0.3,0.4,0.7,0.7,1.2,0.7c1.1,0,1.7-0.8,1.7-2.4v-0.9
			c0-0.6-0.1-1.3-0.5-1.9c-0.4-0.7-1.3-0.9-2-0.5c-0.2,0.1-0.3,0.3-0.5,0.5c-0.3,0.6-0.5,1.2-0.5,1.9L635.5,211.3z"/>
		<path class="st2" d="M643,207.1v0.8c0.4-0.6,1.1-1,1.9-1c1.3,0,2,0.9,2.1,2.7v5.1h-1.2v-5c0-0.4-0.1-0.9-0.3-1.3
			c-0.2-0.3-0.6-0.4-0.9-0.4c-0.3,0-0.6,0.1-0.8,0.3c-0.3,0.2-0.5,0.5-0.6,0.8v5.6h-1.2v-7.7H643z"/>
		<path class="st2" d="M648.6,210.6c-0.1-0.9,0.2-1.9,0.7-2.7c0.4-0.6,1.2-1,1.9-0.9c0.7,0,1.3,0.3,1.7,0.9v-4h1.3v10.9H653
			l-0.1-0.8c-0.4,0.6-1,1-1.8,1c-0.7,0-1.4-0.3-1.9-0.9c-0.5-0.8-0.7-1.7-0.7-2.6L648.6,210.6z M649.8,211.3c0,0.7,0.1,1.3,0.4,1.9
			c0.3,0.4,0.8,0.7,1.2,0.6c0.6,0,1.2-0.4,1.4-0.9V209c-0.2-0.6-0.8-0.9-1.4-0.9c-0.5,0-1,0.2-1.2,0.6c-0.3,0.6-0.4,1.2-0.4,1.9
			V211.3z"/>
		<path class="st2" d="M660,214.8c-0.1-0.3-0.2-0.6-0.2-0.8c-0.4,0.6-1,1-1.7,1c-1.1,0.1-2.1-0.7-2.2-1.8c0-0.2,0-0.3,0-0.5
			c0-0.7,0.3-1.4,0.8-1.9c0.6-0.5,1.4-0.7,2.2-0.7h0.9v-0.8c0.1-0.6-0.3-1.1-0.8-1.3c-0.1,0-0.3,0-0.4,0c-0.3,0-0.7,0.1-0.9,0.3
			c-0.2,0.2-0.4,0.5-0.3,0.9H656c0-0.4,0.1-0.8,0.3-1.1c0.2-0.4,0.5-0.6,0.9-0.8c0.4-0.2,0.9-0.3,1.3-0.3c0.6,0,1.3,0.2,1.8,0.6
			c0.4,0.5,0.7,1.1,0.6,1.7v3.9c0,0.5,0.1,1,0.2,1.5v0.1L660,214.8z M658.3,213.8c0.3,0,0.6-0.1,0.9-0.3c0.3-0.1,0.5-0.4,0.6-0.6
			v-1.8h-0.7c-0.5,0-1,0.1-1.4,0.4c-0.3,0.3-0.5,0.7-0.5,1.1c0,0.3,0.1,0.7,0.3,0.9C657.7,213.7,658,213.8,658.3,213.8L658.3,213.8z
			"/>
		<path class="st2" d="M666.2,208.3c-0.2,0-0.4-0.1-0.6-0.1c-0.6,0-1.2,0.4-1.3,1.1v5.5H663v-7.7h1.2v0.8c0.3-0.6,0.8-0.9,1.4-0.9
			c0.2,0,0.3,0,0.5,0.1L666.2,208.3z"/>
		<path class="st2" d="M669.6,212.7l1.4-5.6h1.3l-2.5,8.7c-0.1,0.6-0.4,1.1-0.8,1.5c-0.3,0.3-0.7,0.5-1.2,0.5c-0.2,0-0.4,0-0.7-0.1
			v-1.1h0.3c0.3,0,0.6-0.1,0.8-0.2c0.2-0.2,0.4-0.6,0.5-0.9l0.2-0.9l-2.2-7.6h1.4L669.6,212.7z"/>
		<path class="st2" d="M675.9,210.9H673v-1.1h2.9L675.9,210.9z"/>
		<path class="st2" d="M678.5,214.8h-1.2v-10.9h1.2V214.8z"/>
		<path class="st2" d="M683.2,214.9c-0.8,0.1-1.6-0.3-2.2-0.9c-0.6-0.7-0.8-1.6-0.8-2.5v-0.9c0-0.9,0.2-1.9,0.8-2.6
			c0.5-0.7,1.3-1,2.1-1c0.8-0.1,1.5,0.3,2,0.9c0.5,0.8,0.7,1.7,0.7,2.7v0.8h-4.3v0.2c-0.1,0.6,0.1,1.3,0.5,1.8
			c0.3,0.4,0.8,0.6,1.3,0.6c0.3,0,0.7-0.1,1-0.2c0.3-0.2,0.6-0.4,0.8-0.7l0.7,0.8C685.1,214.6,684.2,215,683.2,214.9z M683.1,208.1
			c-0.5,0-0.9,0.2-1.2,0.5c-0.3,0.5-0.4,1.1-0.4,1.7h3v-0.2c0-0.5-0.1-1.1-0.4-1.6C683.9,208.2,683.5,208,683.1,208.1L683.1,208.1z"
			/>
		<path class="st2" d="M689.3,212.9l1.5-5.8h1.3l-2.3,7.7h-0.9l-2.3-7.7h1.3L689.3,212.9z"/>
		<path class="st2" d="M696,214.9c-0.8,0.1-1.6-0.3-2.2-0.9c-0.6-0.7-0.8-1.6-0.8-2.5v-0.9c-0.1-1,0.2-1.9,0.7-2.7
			c0.5-0.7,1.3-1,2.1-1c0.8-0.1,1.5,0.3,2,0.9c0.5,0.8,0.7,1.7,0.7,2.7v0.8h-4.3v0.2c-0.1,0.6,0.1,1.3,0.5,1.8
			c0.3,0.4,0.8,0.6,1.3,0.6c0.3,0,0.7-0.1,1-0.2c0.3-0.2,0.6-0.4,0.8-0.7l0.7,0.8C697.9,214.6,697,215,696,214.9z M695.9,208.1
			c-0.5,0-0.9,0.2-1.2,0.5c-0.3,0.5-0.4,1.1-0.4,1.7h3v-0.2c0-0.5-0.1-1.1-0.4-1.6C696.6,208.2,696.3,208,695.9,208.1L695.9,208.1z"
			/>
		<path class="st2" d="M701.4,214.8h-1.2v-10.9h1.2V214.8z"/>
		<path class="st2" d="M710.4,212.8c0-0.3-0.1-0.5-0.3-0.7c-0.4-0.3-0.8-0.5-1.2-0.7c-0.5-0.2-1-0.4-1.4-0.7
			c-0.3-0.2-0.5-0.4-0.6-0.7c-0.1-0.3-0.2-0.6-0.2-0.9c0-0.6,0.2-1.2,0.7-1.6c1-0.8,2.5-0.8,3.5,0c0.5,0.4,0.7,1,0.7,1.7h-1.2
			c0-0.3-0.1-0.6-0.3-0.9c-0.2-0.2-0.5-0.4-0.9-0.4c-0.3,0-0.6,0.1-0.9,0.3c-0.2,0.2-0.3,0.5-0.3,0.8c0,0.2,0.1,0.5,0.2,0.6
			c0.3,0.3,0.7,0.5,1.1,0.6c0.7,0.2,1.3,0.6,1.9,1.1c0.3,0.4,0.5,0.8,0.5,1.3c0,0.6-0.2,1.2-0.7,1.6c-1.1,0.8-2.7,0.8-3.8-0.1
			c-0.5-0.4-0.8-1.1-0.8-1.7h1.3c0,0.4,0.1,0.7,0.4,1c0.6,0.5,1.4,0.5,2,0.1C710.3,213.4,710.4,213.1,710.4,212.8z"/>
		<path class="st2" d="M715.2,211.3l-0.7,0.8v2.7h-1.2v-10.9h1.2v6.5l2.4-3.3h1.5l-2.4,3.2l2.8,4.5h-1.5L715.2,211.3z"/>
		<path class="st2" d="M721.3,205.1c0,0.2-0.1,0.4-0.2,0.5c-0.1,0.1-0.3,0.2-0.5,0.2c-0.2,0-0.4-0.1-0.5-0.2
			c-0.1-0.1-0.2-0.3-0.2-0.5c0-0.2,0.1-0.4,0.2-0.5c0.1-0.2,0.3-0.2,0.5-0.2c0.2,0,0.4,0.1,0.5,0.2
			C721.2,204.7,721.3,204.9,721.3,205.1z M721.2,214.8h-1.3v-7.7h1.3V214.8z"/>
		<path class="st2" d="M724.5,214.8h-1.3v-10.9h1.3V214.8z"/>
		<path class="st2" d="M727.8,214.8h-1.3v-10.9h1.3V214.8z"/>
		<path class="st2" d="M733.5,212.8c0-0.3-0.1-0.5-0.3-0.7c-0.4-0.3-0.7-0.5-1.2-0.7c-0.5-0.2-1-0.4-1.4-0.7
			c-0.3-0.2-0.5-0.4-0.6-0.7c-0.1-0.3-0.2-0.6-0.2-0.9c0-0.6,0.2-1.2,0.7-1.6c1-0.8,2.5-0.8,3.5,0c0.5,0.4,0.7,1,0.7,1.7h-1.2
			c0-0.3-0.1-0.6-0.3-0.9c-0.2-0.2-0.6-0.4-0.9-0.4c-0.3,0-0.6,0.1-0.9,0.3c-0.2,0.2-0.3,0.5-0.3,0.8c0,0.2,0.1,0.5,0.2,0.6
			c0.3,0.3,0.7,0.5,1.1,0.6c0.7,0.2,1.3,0.6,1.9,1.1c0.3,0.4,0.5,0.8,0.5,1.3c0,0.6-0.2,1.2-0.7,1.6c-0.5,0.4-1.2,0.6-1.8,0.6
			c-0.7,0-1.4-0.2-1.9-0.7c-0.5-0.4-0.8-1.1-0.7-1.7h1.3c0,0.4,0.1,0.7,0.4,1c0.6,0.5,1.4,0.5,2,0.1
			C733.4,213.4,733.5,213.1,733.5,212.8z"/>
		<path class="st2" d="M741.4,205.3v1.9h1.2v1h-1.2v4.8c0,0.2,0,0.5,0.2,0.7c0.1,0.2,0.3,0.3,0.5,0.2c0.2,0,0.3,0,0.5-0.1v1.1
			c-0.3,0.1-0.6,0.1-0.9,0.1c-0.4,0-0.9-0.2-1.1-0.5c-0.3-0.4-0.4-1-0.4-1.5v-4.8H739v-1h1.2v-1.9H741.4z"/>
		<path class="st2" d="M743.6,210.6c-0.1-0.9,0.2-1.9,0.8-2.6c0.5-0.7,1.3-1,2.1-1c0.8,0,1.6,0.3,2.1,0.9c0.6,0.7,0.9,1.6,0.8,2.6
			v0.8c0,0.9-0.2,1.9-0.8,2.6c-1.1,1.2-2.9,1.3-4.1,0.2c-0.1-0.1-0.1-0.1-0.2-0.2c-0.6-0.7-0.9-1.6-0.8-2.6V210.6z M744.9,211.3
			c0,0.6,0.1,1.3,0.5,1.9c0.3,0.4,0.7,0.7,1.2,0.7c1.1,0,1.7-0.8,1.7-2.4v-0.9c0-0.6-0.1-1.3-0.5-1.9c-0.3-0.4-0.7-0.7-1.2-0.7
			c-0.5,0-1,0.3-1.2,0.7c-0.3,0.6-0.5,1.2-0.5,1.9L744.9,211.3z"/>
		<path class="st2" d="M586,234.5c0.1,0.9-0.2,1.9-0.7,2.7c-0.4,0.6-1.1,0.9-1.8,0.9c-0.7,0-1.4-0.3-1.8-0.9v3.7h-1.2v-10.6h1.1
			l0.1,0.9c0.4-0.6,1.1-1,1.8-1c0.7-0.1,1.4,0.3,1.9,0.9c0.5,0.8,0.7,1.7,0.6,2.6V234.5z M584.8,233.8c0-0.7-0.1-1.3-0.4-1.9
			c-0.3-0.4-0.8-0.6-1.3-0.6c-0.6,0-1.1,0.4-1.4,0.9v4c0.2,0.5,0.8,0.9,1.4,0.9c0.5,0,1-0.2,1.2-0.6c0.3-0.6,0.4-1.2,0.4-1.9
			L584.8,233.8z"/>
		<path class="st2" d="M590.8,231.5c-0.2,0-0.4,0-0.6-0.1c-0.6,0-1.2,0.4-1.3,1.1v5.5h-1.2v-7.7h1.2v0.8c0.3-0.6,0.8-0.9,1.4-0.9
			c0.2,0,0.3,0,0.5,0.1L590.8,231.5z"/>
		<path class="st2" d="M594.6,238.1c-0.8,0.1-1.6-0.3-2.2-0.9c-0.6-0.7-0.8-1.6-0.8-2.5v-0.9c-0.1-1,0.2-1.9,0.8-2.7
			c0.5-0.7,1.3-1,2.1-1c0.8-0.1,1.5,0.3,2,0.9c0.5,0.8,0.7,1.7,0.7,2.7v0.8h-4.3v0.2c-0.1,0.6,0.1,1.3,0.5,1.8
			c0.3,0.4,0.8,0.6,1.3,0.6c0.3,0,0.7-0.1,1-0.2c0.3-0.2,0.6-0.4,0.8-0.7l0.7,0.8C596.5,237.7,595.6,238.2,594.6,238.1z
			 M594.5,231.3c-0.4,0-0.9,0.2-1.2,0.5c-0.3,0.5-0.4,1.1-0.4,1.7h3v-0.2c0-0.5-0.1-1.1-0.4-1.6
			C595.2,231.4,594.9,231.2,594.5,231.3L594.5,231.3z"/>
		<path class="st2" d="M604.2,234.5c0.1,1-0.2,1.9-0.7,2.7c-0.4,0.6-1.1,0.9-1.8,0.9c-0.7,0-1.4-0.3-1.8-0.9v3.7h-1.2v-10.6h1.1
			l0.1,0.9c0.4-0.6,1.1-1,1.8-1c0.7-0.1,1.4,0.3,1.9,0.9c0.5,0.8,0.7,1.7,0.7,2.6L604.2,234.5z M602.9,233.8c0-0.7-0.1-1.3-0.4-1.9
			c-0.3-0.4-0.8-0.7-1.3-0.6c-0.6,0-1.1,0.4-1.4,0.9v4c0.2,0.5,0.8,0.9,1.4,0.9c0.5,0,1-0.2,1.2-0.6c0.3-0.6,0.5-1.2,0.4-1.9
			L602.9,233.8z"/>
		<path class="st2" d="M609.7,238c-0.1-0.3-0.1-0.5-0.2-0.8c-0.4,0.6-1,1-1.7,1c-0.6,0-1.2-0.2-1.6-0.6c-0.4-0.4-0.6-1-0.6-1.6
			c0-0.7,0.3-1.4,0.8-1.9c0.6-0.5,1.4-0.7,2.2-0.7h0.9v-0.8c0.1-0.6-0.3-1.1-0.8-1.3c-0.1,0-0.3,0-0.4,0c-0.3,0-0.7,0.1-0.9,0.3
			c-0.2,0.2-0.4,0.5-0.4,0.9h-1.2c0-0.4,0.1-0.8,0.3-1.1c0.2-0.4,0.6-0.6,0.9-0.8c0.4-0.2,0.9-0.3,1.3-0.3c0.7,0,1.3,0.2,1.8,0.6
			c0.4,0.5,0.7,1.1,0.6,1.7v3.9c0,0.5,0.1,1,0.2,1.5v0.1H609.7z M608.1,237c0.3,0,0.6-0.1,0.9-0.2c0.3-0.2,0.5-0.4,0.6-0.6v-1.8
			h-0.7c-0.5,0-1,0.1-1.4,0.4c-0.3,0.3-0.5,0.7-0.5,1.1c0,0.3,0.1,0.7,0.3,0.9C607.4,236.9,607.7,237,608.1,237z"/>
		<path class="st2" d="M615.9,231.5c-0.2,0-0.4,0-0.6-0.1c-0.6,0-1.2,0.4-1.3,1.1v5.5h-1.2v-7.7h1.2v0.8c0.3-0.6,0.8-0.9,1.4-0.9
			c0.2,0,0.3,0,0.5,0.1L615.9,231.5z"/>
		<path class="st2" d="M619.8,238.1c-0.8,0.1-1.6-0.3-2.2-0.9c-0.6-0.7-0.8-1.6-0.8-2.5v-0.9c-0.1-1,0.2-1.9,0.7-2.7
			c0.5-0.7,1.3-1,2.1-1c0.8-0.1,1.5,0.3,2,0.9c0.5,0.8,0.7,1.7,0.7,2.7v0.8H618v0.2c-0.1,0.6,0.1,1.3,0.5,1.8
			c0.3,0.4,0.8,0.6,1.3,0.6c0.3,0,0.7-0.1,1-0.2c0.3-0.2,0.6-0.4,0.8-0.7l0.7,0.8C621.7,237.7,620.7,238.2,619.8,238.1z
			 M619.6,231.3c-0.5,0-0.9,0.2-1.2,0.5c-0.3,0.5-0.4,1.1-0.4,1.7h3v-0.2c0-0.5-0.1-1.1-0.4-1.6C620.4,231.4,620,231.2,619.6,231.3z
			"/>
		<path class="st2" d="M628.8,228.5v1.9h1.2v1h-1.2v4.8c0,0.2,0,0.5,0.2,0.7c0.1,0.2,0.3,0.2,0.5,0.2c0.2,0,0.3,0,0.5-0.1v1
			c-0.3,0.1-0.6,0.1-0.9,0.1c-0.4,0-0.9-0.2-1.1-0.5c-0.3-0.4-0.4-1-0.4-1.5v-4.8h-1.2v-1h1.2v-1.9L628.8,228.5z"/>
		<path class="st2" d="M632.7,231.1c0.4-0.6,1.1-0.9,1.8-0.9c1.3,0,2,0.9,2.1,2.7v5.1h-1.2v-5c0-0.4-0.1-0.9-0.3-1.3
			c-0.2-0.3-0.6-0.4-0.9-0.4c-0.3,0-0.6,0.1-0.8,0.3c-0.3,0.2-0.5,0.5-0.6,0.8v5.5h-1.2v-10.9h1.2V231.1z"/>
		<path class="st2" d="M641.2,238.1c-0.8,0.1-1.6-0.3-2.2-0.9c-0.6-0.7-0.8-1.6-0.8-2.5v-0.9c-0.1-1,0.2-1.9,0.7-2.7
			c0.5-0.7,1.3-1,2.1-1c0.8-0.1,1.5,0.3,2,0.9c0.5,0.8,0.7,1.7,0.7,2.7v0.8h-4.3v0.2c-0.1,0.6,0.1,1.3,0.5,1.8
			c0.3,0.4,0.8,0.6,1.3,0.6c0.3,0,0.7-0.1,1-0.2c0.3-0.2,0.6-0.4,0.8-0.7l0.7,0.8C643.1,237.7,642.1,238.2,641.2,238.1z M641,231.3
			c-0.5,0-0.9,0.2-1.2,0.5c-0.3,0.5-0.4,1.1-0.4,1.7h3v-0.2c0-0.5-0.1-1.1-0.4-1.6C641.8,231.4,641.4,231.2,641,231.3L641,231.3z"/>
		<path class="st2" d="M646.4,230.3v0.7c0.4-0.6,1.1-0.9,1.8-0.9c0.8,0,1.5,0.4,1.8,1.1c0.4-0.7,1.2-1.1,2-1.1
			c1.4,0,2.1,0.9,2.2,2.6v5.2H653v-5c0-0.4-0.1-0.9-0.3-1.2c-0.2-0.3-0.6-0.4-1-0.4c-0.4,0-0.7,0.2-0.9,0.4
			c-0.3,0.3-0.4,0.7-0.4,1.1v5.1h-1.3v-5.1c0-1.1-0.4-1.6-1.3-1.6c-0.6,0-1.2,0.4-1.3,1v5.7h-1.2v-7.7L646.4,230.3z"/>
		<path class="st2" d="M660,238v-6.6h-1v-1h1v-0.9c0-0.7,0.2-1.3,0.6-1.8c0.4-0.5,1-0.7,1.6-0.7c0.3,0,0.5,0,0.8,0.1l-0.1,1.1
			c-0.2,0-0.4-0.1-0.6-0.1c-0.7,0-1.1,0.5-1.1,1.5v0.7h1.3v1h-1.3v6.6H660z"/>
		<path class="st2" d="M663.8,233.8c-0.1-1,0.2-1.9,0.8-2.6c1.1-1.2,2.9-1.3,4.1-0.2c0.1,0.1,0.2,0.1,0.2,0.2
			c0.6,0.7,0.9,1.6,0.8,2.6v0.8c0.1,0.9-0.2,1.9-0.8,2.6c-1.1,1.2-2.9,1.3-4.1,0.2c-0.1-0.1-0.1-0.1-0.2-0.2
			c-0.6-0.7-0.9-1.6-0.8-2.6L663.8,233.8z M665,234.5c0,0.7,0.1,1.3,0.5,1.9c0.3,0.4,0.7,0.7,1.2,0.7c1.1,0,1.7-0.8,1.7-2.4v-0.9
			c0-0.7-0.1-1.3-0.5-1.9c-0.3-0.4-0.7-0.7-1.3-0.7c-0.5,0-1,0.3-1.2,0.7c-0.3,0.6-0.5,1.2-0.5,1.9V234.5z"/>
		<path class="st2" d="M674.5,231.5c-0.2,0-0.4,0-0.6-0.1c-0.6,0-1.2,0.4-1.3,1.1v5.5h-1.2v-7.7h1.2v0.8c0.3-0.6,0.8-0.9,1.4-0.9
			c0.2,0,0.3,0,0.5,0.1L674.5,231.5z"/>
		<path class="st2" d="M680.7,228.5v1.9h1.2v1h-1.2v4.8c0,0.2,0,0.5,0.2,0.7c0.1,0.2,0.3,0.2,0.5,0.2c0.2,0,0.3,0,0.5-0.1v1
			c-0.3,0.1-0.6,0.1-0.9,0.1c-0.4,0-0.9-0.2-1.1-0.5c-0.3-0.4-0.4-1-0.4-1.5v-4.8h-1.2v-1h1.2v-1.9L680.7,228.5z"/>
		<path class="st2" d="M684.5,231.1c0.4-0.6,1.1-0.9,1.8-0.9c1.3,0,2,0.9,2.1,2.7v5.1h-1.2v-5c0-0.4-0.1-0.9-0.3-1.3
			c-0.2-0.3-0.6-0.4-0.9-0.4c-0.3,0-0.6,0.1-0.8,0.3c-0.3,0.2-0.5,0.5-0.6,0.8v5.5h-1.2v-10.9h1.2V231.1z"/>
		<path class="st2" d="M693,238.1c-0.8,0.1-1.6-0.3-2.2-0.9c-0.6-0.7-0.8-1.6-0.8-2.5v-0.9c-0.1-1,0.2-1.9,0.7-2.7
			c0.5-0.7,1.3-1,2.1-1c0.8,0,1.5,0.3,2,0.9c0.5,0.8,0.7,1.7,0.7,2.7v0.8h-4.3v0.2c-0.1,0.6,0.1,1.3,0.5,1.8
			c0.3,0.4,0.8,0.6,1.3,0.6c0.3,0,0.7-0.1,1-0.2c0.3-0.2,0.6-0.4,0.8-0.7l0.7,0.8C694.9,237.7,694,238.2,693,238.1z M692.9,231.3
			c-0.5,0-0.9,0.2-1.2,0.5c-0.3,0.5-0.4,1.1-0.4,1.7h3v-0.2c0-0.5-0.1-1.1-0.4-1.6C693.7,231.4,693.3,231.2,692.9,231.3L692.9,231.3
			z"/>
		<path class="st2" d="M706.1,235.8l1.2-5.5h1.2l-1.9,7.7h-1l-1.5-5.5l-1.5,5.5h-1l-1.9-7.7h1.2l1.2,5.3l1.4-5.3h1L706.1,235.8z"/>
		<path class="st2" d="M709.6,233.8c-0.1-1,0.2-1.9,0.8-2.6c1.1-1.2,2.9-1.3,4.1-0.2c0.1,0.1,0.2,0.1,0.2,0.2
			c0.6,0.7,0.9,1.6,0.8,2.6v0.8c0,0.9-0.2,1.9-0.8,2.6c-1.1,1.2-2.9,1.3-4.1,0.2c-0.1-0.1-0.1-0.1-0.2-0.2c-0.6-0.7-0.9-1.6-0.8-2.6
			V233.8z M710.8,234.5c0,0.7,0.1,1.3,0.5,1.9c0.3,0.4,0.7,0.7,1.2,0.7c1.1,0,1.7-0.8,1.7-2.4v-0.9c0-0.7-0.1-1.3-0.5-1.9
			c-0.3-0.4-0.7-0.7-1.2-0.7c-0.5,0-1,0.2-1.2,0.7c-0.3,0.6-0.5,1.2-0.5,1.9L710.8,234.5z"/>
		<path class="st2" d="M720.3,231.5c-0.2,0-0.4,0-0.6-0.1c-0.6,0-1.2,0.4-1.3,1.1v5.5h-1.2v-7.7h1.2v0.8c0.3-0.6,0.8-0.9,1.4-0.9
			c0.2,0,0.3,0,0.5,0.1L720.3,231.5z"/>
		<path class="st2" d="M723.4,234.5l-0.7,0.8v2.8h-1.3v-10.9h1.3v6.5l2.4-3.3h1.5l-2.4,3.2l2.8,4.5h-1.5L723.4,234.5z"/>
		<path class="st2" d="M730.4,234.1h-2.9v-1.1h2.9V234.1z"/>
		<path class="st2" d="M586,257.7c0.1,0.9-0.2,1.9-0.7,2.7c-0.4,0.6-1.1,0.9-1.8,0.9c-0.7,0-1.4-0.3-1.8-0.9v3.7h-1.2v-10.6h1.1
			l0.1,0.9c0.4-0.6,1.1-1,1.8-1c0.7-0.1,1.4,0.3,1.9,0.9c0.5,0.8,0.7,1.7,0.6,2.6V257.7z M584.8,257c0-0.7-0.1-1.3-0.4-1.9
			c-0.3-0.4-0.8-0.7-1.3-0.6c-0.6,0-1.1,0.4-1.4,0.9v4c0.2,0.5,0.8,0.9,1.4,0.9c0.5,0,1-0.2,1.2-0.6c0.3-0.6,0.4-1.2,0.4-1.9
			L584.8,257z"/>
		<path class="st2" d="M588.9,261.2h-1.2v-10.9h1.2V261.2z"/>
		<path class="st2" d="M594.8,261.2c-0.1-0.3-0.1-0.6-0.2-0.8c-0.4,0.6-1,1-1.7,1c-0.6,0-1.2-0.2-1.6-0.6c-0.4-0.4-0.6-1-0.6-1.6
			c0-0.7,0.3-1.4,0.8-1.9c0.6-0.5,1.4-0.7,2.2-0.7h0.9v-0.8c0-0.4-0.1-0.7-0.3-1c-0.3-0.2-0.6-0.3-0.9-0.3c-0.3,0-0.7,0.1-0.9,0.3
			c-0.2,0.2-0.4,0.5-0.3,0.9h-1.2c0-0.4,0.1-0.8,0.3-1.1c0.2-0.4,0.6-0.6,0.9-0.8c0.4-0.2,0.9-0.3,1.3-0.3c0.6,0,1.3,0.2,1.8,0.6
			c0.4,0.5,0.7,1.1,0.6,1.7v3.9c0,0.5,0.1,1,0.2,1.5v0.1H594.8z M593.2,260.2c0.3,0,0.6-0.1,0.9-0.3c0.3-0.1,0.5-0.4,0.6-0.6v-1.8
			H594c-0.5,0-1,0.1-1.4,0.4c-0.3,0.3-0.5,0.7-0.5,1.1c0,0.3,0.1,0.7,0.3,0.9C592.6,260.1,592.9,260.2,593.2,260.2z"/>
		<path class="st2" d="M600.5,260.2c0.4,0,0.7-0.1,1-0.4c0.3-0.3,0.4-0.7,0.4-1.1h1.2c0,0.7-0.3,1.3-0.8,1.8
			c-0.5,0.5-1.1,0.7-1.8,0.7c-0.8,0.1-1.6-0.3-2.2-0.9c-0.5-0.8-0.8-1.7-0.7-2.7v-0.8c-0.1-0.9,0.2-1.9,0.7-2.6
			c0.5-0.6,1.3-1,2.2-0.9c0.7,0,1.4,0.2,1.9,0.7c0.5,0.6,0.7,1.3,0.7,2h-1.2c0-0.5-0.1-0.9-0.4-1.3c-0.2-0.3-0.6-0.4-1-0.4
			c-0.5,0-0.9,0.2-1.2,0.6c-0.3,0.5-0.5,1.2-0.4,1.8v1c-0.1,0.7,0.1,1.3,0.4,1.9C599.5,260.1,600,260.3,600.5,260.2z"/>
		<path class="st2" d="M607.3,261.3c-0.8,0.1-1.6-0.3-2.2-0.9c-0.6-0.7-0.8-1.6-0.8-2.5v-1c-0.1-1,0.2-1.9,0.8-2.7
			c0.5-0.7,1.3-1,2.1-1c0.8-0.1,1.5,0.3,2,0.9c0.5,0.8,0.7,1.7,0.7,2.7v0.8h-4.3v0.2c-0.1,0.6,0.1,1.3,0.5,1.8
			c0.3,0.4,0.8,0.6,1.3,0.6c0.3,0,0.7-0.1,1-0.2c0.3-0.2,0.6-0.4,0.8-0.7l0.7,0.8C609.2,260.9,608.3,261.4,607.3,261.3z
			 M607.1,254.5c-0.5,0-0.9,0.2-1.1,0.5c-0.3,0.5-0.4,1.1-0.4,1.7h3v-0.2c0-0.5-0.1-1.1-0.4-1.6
			C607.9,254.6,607.6,254.4,607.1,254.5L607.1,254.5z"/>
		<path class="st2" d="M611.4,260.5c0-0.2,0.1-0.4,0.2-0.6c0.4-0.3,0.9-0.3,1.2,0c0.1,0.2,0.2,0.4,0.2,0.6c0,0.2-0.1,0.4-0.2,0.5
			c-0.4,0.3-0.9,0.3-1.2,0C611.5,260.9,611.4,260.7,611.4,260.5z"/>
		<rect x="53.9" y="6.9" class="st1" width="17.5" height="50.3"/>
		<rect x="73.8" class="st0" width="17.5" height="57.1"/>
		<rect x="113.6" y="18.9" class="st1" width="17.5" height="38.2"/>
		<rect x="93.7" y="32.1" class="st1" width="17.5" height="25"/>
		<path class="st2" d="M26.7,159h-9.8V91.1L0,98.6v-9.2l25.1-11h1.5V159z"/>
		<path class="st2" d="M54.8,153.6c-0.1-1.6,0.5-3.2,1.6-4.4c1.2-1.3,3-1.9,4.7-1.8c1.8-0.1,3.5,0.5,4.8,1.8
			c1.1,1.2,1.7,2.8,1.6,4.4c0,1.6-0.5,3.1-1.6,4.2c-1.3,1.2-3,1.8-4.8,1.7c-3.1,0.3-5.9-1.9-6.3-5C54.8,154.3,54.8,153.9,54.8,153.6
			L54.8,153.6z"/>
		<path class="st2" d="M117,78.7v8.7h-1.6c-6.5,0.2-11.6,2.3-15.3,6.6s-5.8,10.6-6.3,19.1c3.2-4.3,8.3-6.8,13.7-6.7
			c5.6-0.1,11,2.6,14.1,7.3c3.5,4.9,5.2,11.2,5.2,19.1c0,8.4-1.9,15.1-5.8,19.9c-3.7,4.8-9.4,7.5-15.5,7.3c-6.5,0-11.7-2.9-15.7-8.6
			c-4-5.8-6-13.4-6-23v-3.9c0-11,1.2-19.8,3.6-26.3c2.4-6.5,5.9-11.4,10.6-14.5c4.7-3.2,10.4-4.8,17.3-4.9H117z M105.8,114.8
			c-2.7,0-5.4,1.1-7.3,3c-2.3,2.1-4,4.8-4.8,7.7v4c0,6.5,1.2,11.8,3.4,15.9s5.1,6.1,8.4,6.1c3.6,0,6.5-1.7,8.5-5
			c2.1-3.3,3.1-7.8,3.1-13.3c0-5.4-1-9.9-3.1-13.3S109.2,114.8,105.8,114.8L105.8,114.8z"/>
		<path class="st2" d="M140.9,159V78.8h22.9c7.3,0,12.8,1.8,16.5,5.3c3.7,3.6,5.5,8.9,5.5,16c0.1,3.5-0.9,7-2.8,9.9
			c-1.9,2.9-4.5,5.2-7.6,6.7c3.7,1.1,6.8,3.5,8.7,6.8c2.2,3.7,3.3,8,3.2,12.3c0,7.2-2,12.9-5.9,17s-9.6,6.2-16.9,6.2H140.9z
			 M151,113h12.9c3.2,0.1,6.3-1.2,8.5-3.5c2.1-2.3,3.2-5.5,3.2-9.4c0-4.4-1-7.6-2.9-9.6s-4.9-3-8.9-3H151V113z M151,121.5v28.9h13.8
			c3.4,0.2,6.8-1.2,9.1-3.8c2.2-2.5,3.4-6,3.4-10.6c0-9.7-4.1-14.5-12.2-14.5L151,121.5z"/>
		<path class="st2" d="M9.7,191.6v-10.3h2.9c0.8-0.1,1.5,0.2,2.1,0.7c0.5,0.6,0.8,1.3,0.7,2.1c0,0.5-0.1,0.9-0.4,1.3
			c-0.2,0.4-0.6,0.7-1,0.9c0.5,0.1,0.9,0.5,1.1,0.9c0.3,0.5,0.4,1,0.4,1.6c0,0.8-0.2,1.6-0.8,2.2c-0.6,0.6-1.4,0.8-2.2,0.8
			L9.7,191.6z M11,185.7h1.7c0.4,0,0.8-0.1,1.1-0.4c0.5-0.7,0.5-1.7,0-2.4c-0.3-0.3-0.7-0.4-1.1-0.4H11V185.7z M11,186.8v3.7h1.8
			c0.4,0,0.9-0.2,1.2-0.5c0.3-0.4,0.5-0.9,0.4-1.4c0-1.2-0.5-1.9-1.6-1.9L11,186.8z"/>
		<path class="st2" d="M19.5,189.5l1.4-5.6h1.3l-2.5,8.8c-0.1,0.6-0.4,1.1-0.8,1.5c-0.3,0.3-0.7,0.5-1.2,0.5c-0.2,0-0.4,0-0.7-0.1
			v-1.1h0.3c0.3,0,0.6-0.1,0.9-0.3c0.2-0.2,0.4-0.6,0.5-0.9l0.2-0.9l-2.2-7.6h1.4L19.5,189.5z"/>
		<path class="st2" d="M32.5,191.6h-5.8v-0.9l2.9-3.9c0.4-0.5,0.7-1,0.9-1.5c0.2-0.4,0.3-0.8,0.3-1.2c0-0.5-0.1-0.9-0.4-1.3
			c-0.2-0.3-0.6-0.5-1-0.5c-0.5,0-0.9,0.2-1.2,0.5c-0.3,0.5-0.5,1-0.4,1.6h-1.3c0-0.8,0.2-1.7,0.8-2.3c0.5-0.6,1.3-0.9,2.1-0.9
			c0.7,0,1.4,0.2,1.9,0.8c0.5,0.5,0.7,1.3,0.7,2c-0.1,1.3-0.7,2.6-1.6,3.6l-2.3,3h4.3L32.5,191.6z"/>
		<path class="st2" d="M39.3,187.2c0.1,1.2-0.2,2.3-0.7,3.4c-0.8,1.1-2.3,1.4-3.5,0.7c-0.3-0.2-0.5-0.4-0.7-0.7
			c-0.5-1-0.8-2.1-0.7-3.2v-1.8c-0.1-1.2,0.2-2.3,0.7-3.4c0.4-0.7,1.2-1.2,2.1-1.1c0.8-0.1,1.6,0.3,2.1,1c0.5,1,0.8,2.1,0.7,3.2
			L39.3,187.2z M38.1,185.4c0-0.8-0.1-1.6-0.4-2.4c-0.3-0.6-1-0.9-1.6-0.7c-0.3,0.1-0.5,0.4-0.7,0.7c-0.3,0.7-0.4,1.5-0.4,2.3v2.1
			c0,0.8,0.1,1.7,0.4,2.4c0.2,0.5,0.6,0.8,1.2,0.8c0.5,0,1-0.3,1.1-0.8c0.3-0.7,0.4-1.5,0.4-2.4V185.4z"/>
		<path class="st2" d="M42.6,185.8h0.8c0.4,0,0.9-0.1,1.2-0.5c0.3-0.4,0.4-0.9,0.4-1.3c0-1.2-0.5-1.8-1.4-1.8c-0.4,0-0.8,0.2-1,0.5
			c-0.3,0.4-0.4,0.8-0.4,1.3h-1.2c0-0.7,0.3-1.5,0.8-2c0.5-0.5,1.2-0.8,1.9-0.8c0.7,0,1.4,0.2,1.9,0.8c0.5,0.6,0.8,1.4,0.7,2.1
			c0,0.5-0.1,0.9-0.4,1.3c-0.2,0.4-0.6,0.7-1,0.9c1,0.4,1.6,1.4,1.5,2.4c0,0.8-0.2,1.6-0.8,2.2c-1.1,1.1-2.9,1.1-4,0
			c-0.5-0.6-0.8-1.3-0.8-2.1h1.2c0,0.5,0.1,0.9,0.4,1.3c0.3,0.3,0.7,0.5,1.1,0.5c0.4,0,0.8-0.2,1.1-0.5c0.3-0.4,0.5-0.9,0.4-1.4
			c0-1.2-0.6-1.9-1.8-1.9h-0.7V185.8z"/>
		<path class="st2" d="M53.7,187.2c0.1,1.2-0.2,2.3-0.7,3.4c-0.8,1.1-2.3,1.4-3.5,0.7c-0.3-0.2-0.5-0.4-0.7-0.7
			c-0.5-1-0.8-2.1-0.7-3.2v-1.8c-0.1-1.2,0.2-2.3,0.7-3.4c0.8-1.2,2.3-1.5,3.5-0.7c0.3,0.2,0.5,0.4,0.7,0.7c0.5,1,0.8,2.1,0.7,3.2
			L53.7,187.2z M52.4,185.4c0-0.8-0.1-1.6-0.4-2.4c-0.3-0.6-1-0.9-1.6-0.7c-0.3,0.1-0.5,0.4-0.7,0.7c-0.3,0.7-0.4,1.5-0.4,2.3v2.1
			c0,0.8,0.1,1.7,0.4,2.4c0.2,0.5,0.6,0.8,1.2,0.8c0.5,0,1-0.3,1.1-0.8c0.3-0.8,0.4-1.5,0.4-2.4V185.4z"/>
		<path class="st2" d="M55.4,193.6l-0.7-0.5c0.4-0.6,0.7-1.2,0.7-1.9V190h1.3v1c0,0.5-0.1,1-0.3,1.4
			C56.1,192.9,55.8,193.3,55.4,193.6z"/>
		<path class="st2" d="M65.2,191.6H64v-8.7l-2.2,1v-1.2l3.2-1.4h0.2L65.2,191.6z"/>
		<path class="st2" d="M68.8,190.9c0-0.2,0.1-0.4,0.2-0.6c0.2-0.2,0.4-0.2,0.6-0.2c0.2,0,0.4,0.1,0.6,0.2c0.1,0.2,0.2,0.4,0.2,0.6
			c0,0.2-0.1,0.4-0.2,0.5c-0.2,0.2-0.4,0.2-0.6,0.2c-0.2,0-0.4-0.1-0.6-0.2C68.9,191.3,68.8,191.1,68.8,190.9z"/>
		<path class="st2" d="M76.8,181.3v1.1h-0.2c-0.8,0-1.5,0.3-2,0.9c-0.5,0.7-0.8,1.6-0.8,2.5c0.7-1,2.1-1.2,3.1-0.4
			c0.2,0.1,0.3,0.3,0.5,0.5c0.5,0.7,0.7,1.6,0.7,2.5c0.1,0.9-0.2,1.8-0.7,2.6c-0.5,0.6-1.2,1-2,0.9c-0.8,0-1.6-0.4-2-1.1
			c-0.6-0.9-0.8-1.9-0.8-3v-0.5c0-1.1,0.1-2.3,0.5-3.4c0.2-0.8,0.7-1.4,1.3-1.9c0.7-0.4,1.4-0.6,2.2-0.6L76.8,181.3z M75.4,185.9
			c-0.4,0-0.7,0.1-0.9,0.4c-0.3,0.3-0.5,0.6-0.6,1v0.5c0,0.7,0.1,1.4,0.4,2c0.2,0.4,0.6,0.8,1.1,0.8c0.5,0,0.9-0.2,1.1-0.6
			c0.3-0.5,0.4-1.1,0.4-1.7c0-0.6-0.1-1.2-0.4-1.7C76.2,186.2,75.8,185.9,75.4,185.9z"/>
		<path class="st2" d="M88.6,188.1c0.1,0.9-0.2,1.9-0.6,2.7c-0.4,0.6-1.1,0.9-1.9,0.9c-0.7,0-1.5-0.3-1.8-1l-0.1,0.9H83v-10.9h1.2
			v4.1c0.4-0.6,1-1,1.8-1c0.7,0,1.5,0.3,1.9,0.9c0.5,0.8,0.7,1.7,0.6,2.7L88.6,188.1z M87.3,187.4c0.1-0.7-0.1-1.3-0.4-1.9
			c-0.3-0.4-0.7-0.6-1.2-0.6c-0.6,0-1.2,0.4-1.4,1v3.6c0.2,0.6,0.8,1,1.5,1c0.5,0.1,1-0.1,1.3-0.5c0.3-0.6,0.4-1.2,0.4-1.9
			L87.3,187.4z"/>
		<path class="st2" d="M91.6,181.9c0,0.2-0.1,0.4-0.2,0.5c-0.3,0.3-0.8,0.3-1.1,0c-0.1-0.1-0.2-0.3-0.2-0.5c0-0.2,0.1-0.4,0.2-0.5
			c0.3-0.3,0.8-0.3,1.1,0C91.6,181.5,91.6,181.7,91.6,181.9z M91.5,191.6h-1.2v-7.7h1.2V191.6z"/>
		<path class="st2" d="M94.8,191.6h-1.2v-10.9h1.2V191.6z"/>
		<path class="st2" d="M98.2,191.6h-1.2v-10.9h1.2V191.6z"/>
		<path class="st2" d="M101.6,181.9c0,0.2-0.1,0.4-0.2,0.5c-0.1,0.2-0.3,0.2-0.5,0.2c-0.2,0-0.4-0.1-0.5-0.2
			c-0.1-0.2-0.2-0.3-0.2-0.5c0-0.2,0.1-0.4,0.2-0.5c0.1-0.1,0.3-0.2,0.5-0.2c0.2,0,0.4,0.1,0.5,0.2
			C101.5,181.5,101.6,181.7,101.6,181.9z M101.5,191.6h-1.2v-7.7h1.2V191.6z"/>
		<path class="st2" d="M103.2,187.4c-0.1-0.9,0.2-1.9,0.8-2.6c0.5-0.7,1.3-1,2.1-1c0.8,0,1.6,0.4,2.1,1c0.6,0.7,0.9,1.6,0.8,2.6v0.8
			c0.1,0.9-0.2,1.9-0.8,2.6c-1.1,1.2-2.9,1.3-4.1,0.2c-0.1-0.1-0.1-0.1-0.2-0.2c-0.6-0.7-0.9-1.6-0.8-2.5V187.4z M104.4,188.1
			c0,0.7,0.1,1.3,0.5,1.9c0.3,0.4,0.7,0.7,1.2,0.7c1.1,0,1.7-0.8,1.7-2.4v-0.9c0-0.7-0.1-1.3-0.5-1.9c-0.3-0.4-0.7-0.7-1.2-0.7
			c-0.5,0-1,0.3-1.2,0.7c-0.3,0.6-0.5,1.2-0.5,1.9V188.1z"/>
		<path class="st2" d="M111.9,183.9v0.8c0.4-0.6,1.1-1,1.9-1c1.4,0,2,0.9,2.1,2.7v5.1h-1.2v-5c0-0.4-0.1-0.9-0.3-1.3
			c-0.2-0.3-0.6-0.4-0.9-0.4c-0.3,0-0.6,0.1-0.8,0.3c-0.3,0.2-0.5,0.5-0.6,0.8v5.6h-1.3v-7.7H111.9z"/>
		<path class="st2" d="M13.2,212.8c0-0.3-0.1-0.5-0.3-0.7c-0.4-0.3-0.8-0.5-1.2-0.7c-0.5-0.2-1-0.4-1.4-0.7
			c-0.3-0.2-0.5-0.4-0.6-0.7c-0.1-0.3-0.2-0.6-0.2-0.9c0-0.6,0.2-1.2,0.7-1.6c0.5-0.4,1.1-0.7,1.8-0.6c0.7,0,1.3,0.2,1.8,0.6
			c0.5,0.4,0.7,1,0.7,1.7h-1.3c0-0.7-0.5-1.2-1.2-1.3c0,0,0,0,0,0c-0.3,0-0.6,0.1-0.9,0.3c-0.2,0.2-0.3,0.5-0.3,0.8
			c0,0.2,0.1,0.5,0.2,0.6c0.3,0.3,0.7,0.5,1.1,0.6c0.7,0.2,1.3,0.6,1.8,1.1c0.3,0.4,0.5,0.8,0.5,1.3c0,0.6-0.2,1.2-0.7,1.6
			c-0.5,0.4-1.2,0.6-1.8,0.6c-0.7,0-1.4-0.2-1.9-0.7c-0.5-0.4-0.8-1.1-0.7-1.7h1.3c0,0.4,0.1,0.7,0.4,1c0.3,0.2,0.6,0.4,1,0.4
			c0.3,0,0.7-0.1,0.9-0.3C13.1,213.4,13.2,213.1,13.2,212.8z"/>
		<path class="st2" d="M18.8,213.9c0.4,0,0.7-0.1,1-0.4c0.3-0.3,0.4-0.7,0.4-1.1h1.2c0,0.7-0.3,1.4-0.8,1.8
			c-0.5,0.5-1.1,0.7-1.8,0.7c-0.8,0.1-1.6-0.3-2.2-0.9c-0.6-0.8-0.8-1.7-0.8-2.7v-0.8c-0.1-0.9,0.2-1.9,0.7-2.6
			c0.5-0.6,1.3-1,2.2-0.9c0.7,0,1.4,0.2,1.9,0.7c0.5,0.6,0.7,1.3,0.7,2h-1.2c0-0.5-0.1-0.9-0.4-1.3c-0.3-0.3-0.6-0.4-1-0.4
			c-0.5,0-0.9,0.2-1.2,0.6c-0.3,0.5-0.5,1.2-0.4,1.8v1c-0.1,0.7,0.1,1.3,0.4,1.9C17.8,213.7,18.3,213.9,18.8,213.9z"/>
		<path class="st2" d="M24.1,207.9c0.4-0.6,1.1-0.9,1.8-0.9c1.4,0,2,0.9,2.1,2.7v5.1h-1.2v-5c0-0.4-0.1-0.9-0.3-1.3
			c-0.2-0.3-0.6-0.4-0.9-0.4c-0.3,0-0.6,0.1-0.8,0.3c-0.3,0.2-0.5,0.5-0.6,0.8v5.6h-1.2v-10.9h1.2V207.9z"/>
		<path class="st2" d="M29.6,210.6c-0.1-0.9,0.2-1.9,0.8-2.6c1.1-1.2,2.9-1.3,4.1-0.2c0.1,0.1,0.2,0.1,0.2,0.2
			c0.6,0.7,0.9,1.6,0.8,2.6v0.8c0.1,0.9-0.2,1.9-0.8,2.6c-1.1,1.2-2.9,1.3-4.1,0.2c-0.1-0.1-0.1-0.1-0.2-0.2
			c-0.6-0.7-0.9-1.6-0.8-2.6L29.6,210.6z M30.8,211.3c0,0.6,0.1,1.3,0.5,1.9c0.3,0.4,0.7,0.7,1.3,0.7c1.1,0,1.7-0.8,1.7-2.4v-0.9
			c0-0.6-0.1-1.3-0.5-1.9c-0.3-0.4-0.7-0.7-1.2-0.7c-0.5,0-1,0.3-1.2,0.7c-0.3,0.6-0.5,1.2-0.5,1.9L30.8,211.3z"/>
		<path class="st2" d="M36.8,210.6c-0.1-0.9,0.2-1.9,0.8-2.6c0.5-0.7,1.3-1,2.1-1c0.8,0,1.6,0.3,2.1,0.9c0.6,0.7,0.9,1.6,0.8,2.6
			v0.8c0.1,1-0.2,1.9-0.8,2.7c-1.1,1.2-2.9,1.3-4.1,0.2c-0.1-0.1-0.1-0.1-0.2-0.2c-0.6-0.7-0.9-1.6-0.8-2.6L36.8,210.6z M38.1,211.3
			c0,0.6,0.1,1.3,0.5,1.9c0.3,0.4,0.7,0.7,1.2,0.7c1.1,0,1.7-0.8,1.7-2.4v-0.9c0-0.6-0.1-1.3-0.5-1.9c-0.3-0.4-0.7-0.7-1.2-0.7
			c-0.5,0-1,0.3-1.2,0.7c-0.3,0.6-0.5,1.2-0.5,1.9L38.1,211.3z"/>
		<path class="st2" d="M45.7,214.8h-1.3v-10.9h1.3L45.7,214.8z"/>
		<path class="st2" d="M50,210.9h-2.9v-1.1H50V210.9z"/>
		<path class="st2" d="M55.2,214.8c-0.1-0.3-0.1-0.6-0.2-0.8c-0.4,0.6-1,1-1.7,1c-1.1,0.1-2.1-0.7-2.2-1.8c0-0.2,0-0.3,0-0.5
			c0-0.7,0.3-1.4,0.8-1.9c0.6-0.5,1.4-0.7,2.2-0.7h0.9v-0.8c0-0.7-0.6-1.3-1.3-1.3c-0.3,0-0.6,0.1-0.9,0.3c-0.2,0.2-0.4,0.5-0.4,0.9
			h-1.2c0-0.4,0.1-0.8,0.3-1.1c0.2-0.4,0.5-0.6,0.9-0.8c0.4-0.2,0.9-0.3,1.3-0.3c0.6,0,1.3,0.2,1.8,0.6c0.4,0.5,0.7,1.1,0.6,1.7v3.9
			c0,0.5,0.1,1,0.2,1.5v0.1L55.2,214.8z M53.6,213.8c0.3,0,0.6-0.1,0.9-0.3c0.3-0.1,0.5-0.4,0.6-0.6v-1.8h-0.7c-0.5,0-1,0.1-1.4,0.4
			c-0.3,0.3-0.5,0.7-0.5,1.1c0,0.3,0.1,0.7,0.3,0.9C52.9,213.7,53.2,213.8,53.6,213.8z"/>
		<path class="st2" d="M58,210.6c-0.1-0.9,0.2-1.9,0.7-2.7c0.4-0.6,1.2-1,1.9-0.9c0.7,0,1.4,0.4,1.8,1l0.1-0.9h1.1v7.7
			c0.1,0.8-0.2,1.6-0.7,2.2c-0.5,0.5-1.3,0.8-2,0.8c-0.4,0-0.9-0.1-1.3-0.3c-0.4-0.1-0.8-0.4-1.1-0.7L59,216
			c0.4,0.5,1.1,0.7,1.7,0.8c1,0,1.6-0.6,1.6-1.7v-1c-0.4,0.6-1,0.9-1.7,0.9c-0.7,0-1.4-0.3-1.8-0.9c-0.5-0.8-0.7-1.7-0.7-2.6
			L58,210.6z M59.3,211.3c0,0.7,0.1,1.3,0.4,1.9c0.3,0.4,0.7,0.7,1.2,0.6c0.6,0,1.2-0.4,1.4-1V209c-0.2-0.6-0.8-0.9-1.4-0.9
			c-0.5,0-1,0.2-1.2,0.6c-0.3,0.6-0.4,1.2-0.4,1.9L59.3,211.3z"/>
		<path class="st2" d="M68.1,214.9c-0.8,0.1-1.6-0.3-2.2-0.9c-0.6-0.7-0.8-1.6-0.8-2.5v-0.9c0-0.9,0.2-1.9,0.8-2.6
			c0.5-0.7,1.3-1,2.1-1c0.8-0.1,1.5,0.3,2,0.9c0.5,0.8,0.7,1.7,0.7,2.7v0.8h-4.3v0.2c-0.1,0.6,0.1,1.3,0.5,1.8
			c0.3,0.4,0.8,0.6,1.3,0.6c0.3,0,0.7-0.1,1-0.2c0.3-0.2,0.6-0.4,0.8-0.7l0.7,0.8C70.1,214.6,69.1,215,68.1,214.9z M68,208.1
			c-0.5,0-0.9,0.2-1.2,0.5c-0.3,0.5-0.4,1.1-0.4,1.7h3v-0.2c0-0.5-0.1-1.1-0.4-1.6C68.8,208.2,68.4,208,68,208.1z"/>
		<path class="st2" d="M78.2,213.9c0.4,0,0.7-0.1,1-0.4c0.3-0.3,0.4-0.7,0.4-1.1h1.2c0,0.7-0.3,1.3-0.7,1.8
			c-0.5,0.5-1.1,0.7-1.8,0.7c-0.8,0.1-1.6-0.3-2.2-0.9c-0.5-0.8-0.8-1.7-0.7-2.7v-0.8c-0.1-0.9,0.2-1.9,0.7-2.6
			c0.5-0.6,1.3-1,2.2-0.9c0.7,0,1.4,0.2,1.9,0.7c0.5,0.6,0.7,1.3,0.7,2h-1.2c0-0.5-0.1-0.9-0.4-1.3c-0.2-0.3-0.6-0.4-1-0.4
			c-0.5,0-0.9,0.2-1.2,0.6c-0.3,0.5-0.5,1.2-0.4,1.8v1c-0.1,0.7,0.1,1.3,0.4,1.9C77.2,213.7,77.7,213.9,78.2,213.9z"/>
		<path class="st2" d="M83.4,207.9c0.4-0.6,1.1-0.9,1.8-0.9c1.3,0,2,0.9,2.1,2.7v5.1h-1.2v-5c0-0.4-0.1-0.9-0.3-1.3
			c-0.2-0.3-0.6-0.4-0.9-0.4c-0.3,0-0.6,0.1-0.8,0.3c-0.3,0.2-0.5,0.5-0.6,0.8v5.6h-1.2v-10.9h1.2V207.9z"/>
		<path class="st2" d="M90.6,205.1c0,0.2-0.1,0.4-0.2,0.5c-0.1,0.1-0.3,0.2-0.5,0.2c-0.2,0-0.4-0.1-0.5-0.2
			c-0.1-0.2-0.2-0.3-0.2-0.5c0-0.2,0.1-0.4,0.2-0.5c0.1-0.2,0.3-0.2,0.5-0.2c0.2,0,0.4,0.1,0.5,0.2
			C90.6,204.7,90.6,204.9,90.6,205.1z M90.5,214.8h-1.2v-7.7h1.2V214.8z"/>
		<path class="st2" d="M93.9,214.8h-1.2v-10.9h1.2V214.8z"/>
		<path class="st2" d="M95.6,210.6c-0.1-0.9,0.2-1.9,0.7-2.7c0.4-0.6,1.2-1,1.9-0.9c0.7,0,1.3,0.3,1.7,0.9v-4h1.2v10.9H100l-0.1-0.8
			c-0.4,0.6-1,1-1.8,1c-0.7,0-1.4-0.3-1.9-0.9c-0.5-0.8-0.7-1.7-0.7-2.6L95.6,210.6z M96.8,211.3c0,0.7,0.1,1.3,0.4,1.9
			c0.3,0.4,0.8,0.7,1.2,0.6c0.6,0,1.2-0.4,1.4-0.9V209c-0.2-0.6-0.8-0.9-1.4-0.9c-0.5,0-1,0.2-1.2,0.6c-0.3,0.6-0.4,1.2-0.4,1.9
			V211.3z"/>
		<path class="st2" d="M106.2,208.3c-0.2,0-0.4,0-0.6-0.1c-0.6,0-1.2,0.4-1.3,1.1v5.5H103v-7.7h1.2v0.8c0.2-0.6,0.8-0.9,1.4-0.9
			c0.2,0,0.3,0,0.5,0.1L106.2,208.3z"/>
		<path class="st2" d="M110,214.9c-0.8,0.1-1.6-0.3-2.2-0.9c-0.6-0.7-0.8-1.6-0.8-2.5v-0.9c-0.1-1,0.2-1.9,0.8-2.7
			c0.5-0.7,1.3-1,2.1-1c0.8-0.1,1.5,0.3,2,0.9c0.5,0.8,0.7,1.7,0.7,2.7v0.8h-4.2v0.2c-0.1,0.6,0.1,1.3,0.5,1.8
			c0.3,0.4,0.8,0.6,1.3,0.6c0.3,0,0.7-0.1,1-0.2c0.3-0.2,0.6-0.4,0.8-0.7l0.7,0.8C112,214.6,111,215,110,214.9z M109.9,208.1
			c-0.5,0-0.9,0.2-1.2,0.5c-0.3,0.5-0.4,1.1-0.4,1.7h3v-0.2c0-0.5-0.1-1.1-0.4-1.6C110.6,208.2,110.3,208,109.9,208.1L109.9,208.1z"
			/>
		<path class="st2" d="M115.3,207.1v0.8c0.4-0.6,1.1-1,1.9-1c1.3,0,2,0.9,2.1,2.7v5.1H118v-5c0-0.4-0.1-0.9-0.3-1.3
			c-0.2-0.3-0.6-0.4-0.9-0.4c-0.3,0-0.6,0.1-0.8,0.3c-0.3,0.2-0.5,0.5-0.6,0.8v5.6h-1.2v-7.7H115.3z"/>
		<path class="st2" d="M130.1,212.6l1.2-5.5h1.2l-1.9,7.7h-1l-1.5-5.5l-1.5,5.5h-1l-1.9-7.7h1.2l1.2,5.3l1.4-5.3h1L130.1,212.6z"/>
		<path class="st2" d="M135.3,205.1c0,0.2-0.1,0.4-0.2,0.5c-0.1,0.1-0.3,0.2-0.5,0.2c-0.2,0-0.4-0.1-0.5-0.2
			c-0.1-0.1-0.2-0.3-0.2-0.5c0-0.2,0.1-0.4,0.2-0.5c0.1-0.2,0.3-0.2,0.5-0.2c0.2,0,0.4,0.1,0.5,0.2
			C135.2,204.7,135.3,204.9,135.3,205.1z M135.2,214.8h-1.3v-7.7h1.3V214.8z"/>
		<path class="st2" d="M138.5,214.8h-1.3v-10.9h1.3V214.8z"/>
		<path class="st2" d="M141.8,214.8h-1.3v-10.9h1.3V214.8z"/>
		<path class="st2" d="M152.7,211.3c0.1,0.9-0.2,1.9-0.7,2.7c-0.4,0.6-1.1,1-1.9,0.9c-0.8,0-1.5-0.4-1.8-1.1l-0.1,0.9h-1.1v-10.9
			h1.2v4.1c0.4-0.6,1-1,1.8-1c0.7,0,1.5,0.3,1.9,0.9c0.5,0.8,0.7,1.8,0.6,2.7L152.7,211.3z M151.4,210.6c0.1-0.7-0.1-1.3-0.4-1.9
			c-0.3-0.4-0.7-0.6-1.2-0.6c-0.7,0-1.2,0.4-1.4,1.1v3.6c0.2,0.6,0.8,1,1.4,1c0.5,0,1-0.2,1.2-0.6c0.3-0.6,0.4-1.2,0.4-1.8V210.6z"
			/>
		<path class="st2" d="M157,214.9c-0.8,0.1-1.6-0.3-2.2-0.9c-0.6-0.7-0.8-1.6-0.8-2.5v-0.9c-0.1-1,0.2-1.9,0.8-2.7
			c0.5-0.7,1.3-1,2.1-1c0.8-0.1,1.5,0.3,2,0.9c0.5,0.8,0.7,1.7,0.7,2.7v0.8h-4.3v0.2c-0.1,0.6,0.1,1.3,0.5,1.8
			c0.3,0.4,0.8,0.6,1.3,0.6c0.3,0,0.7-0.1,1-0.2c0.3-0.2,0.6-0.4,0.8-0.7l0.7,0.8C158.9,214.5,158,215,157,214.9z M156.9,208.1
			c-0.5,0-0.9,0.2-1.1,0.5c-0.3,0.5-0.4,1.1-0.4,1.7h3v-0.2c0-0.5-0.1-1.1-0.4-1.6C157.6,208.2,157.3,208,156.9,208.1z"/>
		<path class="st2" d="M165.8,205.1c0,0.2-0.1,0.4-0.2,0.5c-0.3,0.3-0.8,0.3-1.1,0c-0.1-0.1-0.2-0.3-0.2-0.5c0-0.2,0.1-0.4,0.2-0.5
			c0.1-0.2,0.3-0.2,0.5-0.2c0.2,0,0.4,0.1,0.5,0.2C165.8,204.7,165.8,204.9,165.8,205.1z M165.7,214.8h-1.2v-7.7h1.2V214.8z"/>
		<path class="st2" d="M168.9,207.1v0.8c0.4-0.6,1.1-1,1.9-1c1.4,0,2,0.9,2.1,2.7v5.1h-1.2v-5c0-0.4-0.1-0.9-0.3-1.3
			c-0.2-0.3-0.6-0.4-0.9-0.4c-0.3,0-0.6,0.1-0.8,0.3c-0.3,0.2-0.5,0.5-0.6,0.8v5.6h-1.2v-7.7H168.9z"/>
		<path class="st2" d="M10.9,238H9.6v-10.9h1.2V238z"/>
		<path class="st2" d="M12.6,233.8c-0.1-1,0.2-1.9,0.8-2.6c0.5-0.6,1.3-1,2.1-1c0.8,0,1.6,0.3,2.1,0.9c0.6,0.7,0.9,1.6,0.8,2.6v0.8
			c0.1,0.9-0.2,1.9-0.8,2.6c-0.5,0.7-1.3,1-2.2,1c-0.8,0-1.6-0.3-2.1-0.9c-0.6-0.7-0.9-1.6-0.8-2.6L12.6,233.8z M13.8,234.5
			c0,0.7,0.1,1.3,0.5,1.9c0.3,0.4,0.7,0.7,1.2,0.7c1.1,0,1.7-0.8,1.7-2.4v-0.9c0-0.7-0.1-1.3-0.5-1.9c-0.3-0.4-0.7-0.7-1.2-0.7
			c-0.5,0-1,0.2-1.2,0.7c-0.3,0.6-0.5,1.2-0.5,1.9L13.8,234.5z"/>
		<path class="st2" d="M25.8,235.8l1.2-5.5h1.2l-1.9,7.7h-1l-1.5-5.5l-1.5,5.5h-1l-1.9-7.7h1.2l1.2,5.3l1.4-5.3h1L25.8,235.8z"/>
		<path class="st2" d="M36.8,238c-0.1-0.3-0.2-0.5-0.2-0.8c-0.4,0.6-1,1-1.7,1c-0.6,0-1.2-0.2-1.6-0.6c-0.4-0.4-0.6-1-0.6-1.6
			c0-0.7,0.3-1.4,0.8-1.9c0.6-0.5,1.4-0.7,2.2-0.7h0.9v-0.8c0-0.4-0.1-0.7-0.3-1c-0.3-0.2-0.6-0.3-0.9-0.3c-0.3,0-0.7,0.1-0.9,0.3
			c-0.2,0.2-0.4,0.5-0.3,0.9h-1.2c0-0.4,0.1-0.8,0.3-1.1c0.2-0.4,0.6-0.6,0.9-0.8c0.4-0.2,0.9-0.3,1.3-0.3c0.6,0,1.3,0.2,1.8,0.6
			c0.4,0.5,0.7,1.1,0.6,1.7v3.9c0,0.5,0.1,1,0.2,1.5v0.1H36.8z M35.1,237c0.3,0,0.6-0.1,0.9-0.2c0.3-0.2,0.5-0.4,0.6-0.6v-1.8h-0.7
			c-0.5,0-1,0.1-1.4,0.4c-0.3,0.2-0.5,0.7-0.5,1.1c0,0.3,0.1,0.7,0.3,0.9C34.5,236.9,34.8,237,35.1,237z"/>
		<path class="st2" d="M41,230.3v0.8c0.4-0.6,1.1-1,1.9-1c1.3,0,2,0.9,2.1,2.7v5.1h-1.2v-5c0-0.4-0.1-0.9-0.3-1.3
			c-0.2-0.3-0.6-0.4-0.9-0.4c-0.3,0-0.6,0.1-0.8,0.3c-0.3,0.2-0.5,0.5-0.6,0.8v5.5h-1.2v-7.7L41,230.3z"/>
		<path class="st2" d="M46.6,233.8c-0.1-0.9,0.2-1.9,0.7-2.7c0.4-0.6,1.1-1,1.9-0.9c0.7,0,1.3,0.3,1.7,0.9v-4h1.2V238h-1.2l-0.1-0.8
			c-0.4,0.6-1,1-1.8,1c-0.7,0-1.4-0.3-1.9-0.9c-0.5-0.8-0.7-1.7-0.7-2.6V233.8z M47.8,234.5c0,0.7,0.1,1.3,0.4,1.9
			c0.3,0.4,0.7,0.6,1.2,0.6c0.6,0,1.2-0.4,1.4-0.9v-3.9c-0.2-0.6-0.8-0.9-1.4-0.9c-0.5,0-1,0.2-1.2,0.6c-0.3,0.6-0.4,1.2-0.4,1.9
			L47.8,234.5z"/>
		<path class="st2" d="M58.5,230.3v0.7c0.4-0.6,1.1-0.9,1.8-0.9c0.8-0.1,1.5,0.4,1.8,1.1c0.4-0.7,1.2-1.1,2-1.1
			c1.4,0,2.1,0.9,2.2,2.6v5.2h-1.2v-5c0-0.4-0.1-0.9-0.3-1.2c-0.2-0.3-0.6-0.4-1-0.4c-0.4,0-0.7,0.2-0.9,0.4
			c-0.2,0.3-0.4,0.7-0.4,1.1v5.1h-1.3v-5.1c0-1.1-0.5-1.6-1.3-1.6c-0.6,0-1.2,0.4-1.3,1v5.7h-1.2v-7.7L58.5,230.3z"/>
		<path class="st2" d="M69.7,228.3c0,0.2-0.1,0.4-0.2,0.5c-0.1,0.1-0.3,0.2-0.5,0.2c-0.2,0-0.4-0.1-0.5-0.2
			c-0.1-0.1-0.2-0.3-0.2-0.5c0-0.2,0.1-0.4,0.2-0.5c0.1-0.2,0.3-0.2,0.5-0.2c0.2,0,0.4,0.1,0.5,0.2
			C69.7,227.9,69.7,228.1,69.7,228.3z M69.6,238h-1.3v-7.7h1.2L69.6,238z"/>
		<path class="st2" d="M71.3,233.8c-0.1-0.9,0.2-1.9,0.7-2.7c0.4-0.6,1.1-1,1.9-0.9c0.7,0,1.3,0.3,1.7,0.9v-4h1.3V238h-1.2l-0.1-0.8
			c-0.4,0.6-1,1-1.8,1c-0.7,0-1.4-0.4-1.9-1c-0.5-0.8-0.7-1.7-0.7-2.6L71.3,233.8z M72.6,234.5c0,0.7,0.1,1.3,0.4,1.9
			c0.3,0.4,0.8,0.6,1.2,0.6c0.6,0,1.2-0.4,1.4-0.9v-3.9c-0.2-0.6-0.8-0.9-1.4-0.9c-0.5,0-1,0.2-1.2,0.6c-0.3,0.6-0.4,1.2-0.4,1.9
			V234.5z"/>
		<path class="st2" d="M78.5,233.8c-0.1-0.9,0.2-1.9,0.7-2.7c0.4-0.6,1.1-1,1.9-0.9c0.7,0,1.3,0.3,1.7,0.9v-4H84V238h-1.1l-0.1-0.8
			c-0.4,0.6-1,1-1.8,1c-0.7,0-1.4-0.3-1.9-0.9c-0.5-0.8-0.7-1.7-0.7-2.6V233.8z M79.7,234.5c0,0.7,0.1,1.3,0.4,1.9
			c0.3,0.4,0.7,0.6,1.2,0.6c0.6,0,1.2-0.4,1.4-0.9v-3.9c-0.2-0.6-0.8-0.9-1.4-0.9c-0.5,0-1,0.2-1.2,0.6c-0.3,0.6-0.4,1.2-0.4,1.9
			V234.5z"/>
		<path class="st2" d="M87.3,238H86v-10.9h1.3V238z"/>
		<path class="st2" d="M92,238.1c-0.8,0.1-1.6-0.3-2.2-0.9c-0.6-0.7-0.8-1.6-0.8-2.5v-0.9c-0.1-1,0.2-1.9,0.8-2.7
			c0.5-0.7,1.3-1,2.1-1c0.8-0.1,1.5,0.3,2,0.9c0.5,0.8,0.7,1.7,0.7,2.7v0.8h-4.3v0.2c-0.1,0.6,0.1,1.3,0.5,1.8
			c0.3,0.4,0.8,0.6,1.3,0.6c0.3,0,0.7-0.1,1-0.2c0.3-0.2,0.6-0.4,0.8-0.7l0.7,0.8C93.9,237.7,93,238.2,92,238.1z M91.9,231.3
			c-0.4,0-0.9,0.2-1.2,0.5c-0.3,0.5-0.4,1.1-0.4,1.7h3v-0.2c0-0.5-0.1-1.1-0.4-1.6C92.6,231.4,92.3,231.2,91.9,231.3z"/>
		<path class="st2" d="M98.4,234.1h-2.9v-1.1h2.9L98.4,234.1z"/>
		<path class="st2" d="M101.1,228.3c0,0.2-0.1,0.4-0.2,0.5c-0.1,0.1-0.3,0.2-0.5,0.2c-0.2,0-0.4-0.1-0.5-0.2
			c-0.1-0.2-0.2-0.3-0.2-0.5c0-0.2,0.1-0.4,0.2-0.5c0.1-0.1,0.3-0.2,0.5-0.2c0.2,0,0.4,0.1,0.5,0.2
			C101,227.9,101.1,228.1,101.1,228.3z M101,238h-1.2v-7.7h1.2V238z"/>
		<path class="st2" d="M104.2,230.3v0.8c0.4-0.6,1.1-1,1.9-1c1.3,0,2,0.9,2.1,2.7v5.1h-1.2v-5c0-0.4-0.1-0.9-0.3-1.3
			c-0.2-0.3-0.6-0.4-0.9-0.4c-0.3,0-0.6,0.1-0.8,0.3c-0.3,0.2-0.5,0.5-0.6,0.8v5.5H103v-7.7L104.2,230.3z"/>
		<path class="st2" d="M112.6,237.1c0.4,0,0.7-0.1,1-0.4c0.3-0.3,0.4-0.7,0.4-1.1h1.2c0,0.7-0.3,1.3-0.8,1.8
			c-0.5,0.5-1.1,0.7-1.8,0.7c-0.8,0.1-1.6-0.3-2.2-0.9c-0.5-0.8-0.8-1.7-0.7-2.7v-0.8c-0.1-0.9,0.2-1.9,0.7-2.6
			c0.5-0.6,1.3-1,2.2-0.9c0.7,0,1.4,0.2,1.9,0.8c0.5,0.6,0.7,1.3,0.7,2h-1.2c0-0.5-0.1-0.9-0.4-1.3c-0.3-0.3-0.6-0.4-1-0.4
			c-0.5,0-0.9,0.2-1.2,0.6c-0.3,0.5-0.5,1.2-0.4,1.8v1c-0.1,0.7,0.1,1.3,0.4,1.9C111.7,236.9,112.2,237.1,112.6,237.1z"/>
		<path class="st2" d="M116.4,233.8c-0.1-1,0.2-1.9,0.8-2.6c0.5-0.6,1.3-1,2.1-1c0.8,0,1.6,0.3,2.1,0.9c0.6,0.7,0.9,1.6,0.8,2.6v0.8
			c0,0.9-0.2,1.9-0.8,2.6c-1.1,1.2-2.9,1.3-4.1,0.2c-0.1-0.1-0.1-0.1-0.2-0.2c-0.6-0.7-0.9-1.6-0.8-2.6V233.8z M117.7,234.5
			c0,0.7,0.1,1.3,0.5,1.9c0.3,0.4,0.7,0.7,1.2,0.7c1.1,0,1.7-0.8,1.7-2.4v-0.9c0-0.7-0.1-1.3-0.5-1.9c-0.3-0.4-0.7-0.7-1.2-0.7
			c-0.5,0-1,0.2-1.2,0.7c-0.3,0.6-0.5,1.2-0.5,1.9V234.5z"/>
		<path class="st2" d="M125.1,230.3v0.7c0.4-0.6,1.1-0.9,1.8-0.9c0.8-0.1,1.5,0.4,1.8,1.1c0.4-0.7,1.2-1.1,2-1.1
			c1.4,0,2.1,0.9,2.2,2.6v5.2h-1.2v-5c0-0.4-0.1-0.9-0.3-1.2c-0.2-0.3-0.6-0.4-1-0.4c-0.4,0-0.7,0.2-0.9,0.4
			c-0.2,0.3-0.4,0.7-0.4,1.1v5.1h-1.3v-5.1c0-1.1-0.4-1.6-1.3-1.6c-0.6,0-1.2,0.4-1.3,1v5.7H124v-7.7L125.1,230.3z"/>
		<path class="st2" d="M137.6,238.1c-0.8,0.1-1.6-0.3-2.2-0.9c-0.6-0.7-0.8-1.6-0.8-2.5v-0.9c-0.1-1,0.2-1.9,0.7-2.7
			c0.5-0.7,1.3-1,2.1-1c0.8-0.1,1.5,0.3,2,0.9c0.5,0.8,0.7,1.7,0.7,2.7v0.8h-4.3v0.2c-0.1,0.6,0.1,1.3,0.5,1.8
			c0.3,0.4,0.8,0.6,1.3,0.6c0.3,0,0.7-0.1,1-0.2c0.3-0.2,0.6-0.4,0.8-0.7l0.6,0.8C139.5,237.7,138.6,238.2,137.6,238.1z
			 M137.5,231.3c-0.5,0-0.9,0.2-1.2,0.5c-0.3,0.5-0.4,1.1-0.4,1.7h3v-0.2c0-0.5-0.1-1.1-0.4-1.6
			C138.2,231.4,137.9,231.2,137.5,231.3z"/>
		<path class="st2" d="M10.1,261.2v-6.6h-1v-1h1v-0.9c0-0.7,0.2-1.3,0.6-1.8c0.4-0.5,1-0.7,1.6-0.6c0.3,0,0.5,0,0.8,0.1l0,1.1
			c-0.2,0-0.4-0.1-0.6-0.1c-0.7,0-1.1,0.5-1.1,1.5v0.7h1.3v1h-1.3v6.7L10.1,261.2z"/>
		<path class="st2" d="M18.1,261.2c-0.1-0.3-0.2-0.6-0.2-0.8c-0.4,0.6-1,1-1.7,1c-1.1,0.1-2.1-0.7-2.2-1.8c0-0.2,0-0.3,0-0.5
			c0-0.7,0.3-1.4,0.8-1.9c0.6-0.5,1.4-0.7,2.2-0.7h0.9v-0.8c0-0.4-0.1-0.7-0.3-1c-0.3-0.2-0.6-0.3-0.9-0.3c-0.3,0-0.7,0.1-0.9,0.3
			c-0.2,0.2-0.4,0.5-0.4,0.9h-1.3c0-0.4,0.1-0.8,0.3-1.1c0.2-0.4,0.6-0.6,0.9-0.8c0.4-0.2,0.9-0.3,1.3-0.3c0.6,0,1.3,0.2,1.8,0.6
			c0.4,0.5,0.7,1.1,0.6,1.7v3.9c0,0.5,0.1,1,0.2,1.5v0.1L18.1,261.2z M16.4,260.2c0.6,0,1.2-0.4,1.5-0.9v-1.8h-0.7
			c-0.5,0-1,0.1-1.4,0.4c-0.3,0.3-0.5,0.7-0.5,1.1c0,0.3,0.1,0.7,0.3,0.9C15.7,260.1,16.1,260.2,16.4,260.2z"/>
		<path class="st2" d="M22.2,253.5v0.7c0.4-0.6,1.1-0.9,1.9-0.9c0.8,0,1.5,0.4,1.8,1.1c0.4-0.7,1.2-1.1,2-1.1c1.4,0,2.1,0.9,2.2,2.6
			v5.2h-1.2v-5c0-0.4-0.1-0.9-0.3-1.2c-0.2-0.3-0.6-0.4-1-0.4c-0.4,0-0.7,0.2-0.9,0.4c-0.3,0.3-0.4,0.7-0.4,1.1v5.1H25v-5.1
			c0-1.1-0.5-1.6-1.3-1.6c-0.6,0-1.2,0.4-1.3,0.9v5.7h-1.3v-7.7L22.2,253.5z"/>
		<path class="st2" d="M33.4,251.5c0,0.2-0.1,0.4-0.2,0.5c-0.1,0.1-0.3,0.2-0.5,0.2c-0.2,0-0.4-0.1-0.5-0.2
			c-0.1-0.2-0.2-0.3-0.2-0.5c0-0.2,0-0.4,0.2-0.5c0.1-0.2,0.3-0.2,0.5-0.2c0.2,0,0.4,0.1,0.5,0.2C33.4,251.1,33.4,251.3,33.4,251.5z
			 M33.3,261.2h-1.2v-7.7h1.2V261.2z"/>
		<path class="st2" d="M36.6,261.2h-1.2v-10.9h1.2V261.2z"/>
		<path class="st2" d="M40.1,251.5c0,0.2-0.1,0.4-0.2,0.5c-0.1,0.1-0.3,0.2-0.5,0.2c-0.2,0-0.4-0.1-0.5-0.2
			c-0.1-0.1-0.2-0.3-0.2-0.5c0-0.2,0.1-0.4,0.2-0.5c0.1-0.2,0.3-0.2,0.5-0.2c0.2,0,0.4,0.1,0.5,0.2C40,251.1,40.1,251.3,40.1,251.5z
			 M40,261.2h-1.3v-7.7H40L40,261.2z"/>
		<path class="st2" d="M44.7,261.3c-0.8,0.1-1.6-0.3-2.2-0.9c-0.6-0.7-0.8-1.6-0.8-2.5v-1c-0.1-1,0.2-1.9,0.8-2.7
			c0.5-0.7,1.3-1,2.1-1c0.8-0.1,1.5,0.3,2,0.9c0.5,0.8,0.7,1.7,0.7,2.7v0.8h-4.3v0.2c-0.1,0.6,0.1,1.3,0.5,1.8
			c0.3,0.4,0.8,0.6,1.3,0.6c0.3,0,0.7-0.1,1-0.2c0.3-0.2,0.6-0.4,0.8-0.7l0.7,0.8C46.6,260.9,45.7,261.4,44.7,261.3z M44.5,254.5
			c-0.5,0-0.9,0.2-1.2,0.5c-0.3,0.5-0.4,1.1-0.4,1.7h3v-0.2c0-0.5-0.1-1.1-0.4-1.6C45.3,254.6,44.9,254.4,44.5,254.5L44.5,254.5z"/>
		<path class="st2" d="M52.4,259.2c0-0.3-0.1-0.5-0.3-0.7c-0.4-0.3-0.7-0.5-1.2-0.7c-0.5-0.2-1-0.4-1.4-0.7
			c-0.3-0.2-0.5-0.4-0.6-0.7c-0.1-0.3-0.2-0.6-0.2-0.9c0-0.6,0.2-1.2,0.7-1.6c1-0.8,2.5-0.8,3.5,0c0.5,0.4,0.7,1,0.7,1.7h-1.2
			c0-0.3-0.1-0.6-0.3-0.9c-0.2-0.2-0.6-0.4-0.9-0.4c-0.3,0-0.6,0.1-0.9,0.3c-0.2,0.2-0.3,0.5-0.3,0.8c0,0.2,0.1,0.5,0.2,0.6
			c0.3,0.3,0.7,0.5,1.1,0.6c0.7,0.2,1.3,0.6,1.9,1.1c0.3,0.4,0.5,0.8,0.5,1.3c0,0.6-0.2,1.2-0.7,1.6c-0.5,0.4-1.2,0.6-1.8,0.6
			c-0.7,0-1.4-0.2-1.9-0.7c-0.5-0.4-0.8-1.1-0.7-1.7h1.3c0,0.4,0.1,0.7,0.4,1c0.3,0.2,0.6,0.4,1,0.4c0.4,0,0.7-0.1,1-0.3
			C52.3,259.8,52.4,259.5,52.4,259.2z"/>
		<path class="st2" d="M55.4,260.5c0-0.2,0.1-0.4,0.2-0.6c0.4-0.3,0.9-0.3,1.2,0c0.1,0.2,0.2,0.4,0.2,0.6c0,0.2-0.1,0.4-0.2,0.5
			c-0.4,0.3-0.9,0.3-1.2,0C55.5,260.9,55.4,260.7,55.4,260.5z"/>
		<rect x="327.8" y="6.9" class="st1" width="17.5" height="50.3"/>
		<rect x="347.7" class="st1" width="17.5" height="57.1"/>
		<rect x="387.4" y="18.9" class="st1" width="17.5" height="38.2"/>
		<rect x="367.5" y="32.1" class="st0" width="17.5" height="25"/>
		<path class="st2" d="M283.5,132h8.9v8.3h-8.9V159h-9.8v-18.6h-30.3v-6l29.8-55.6h10.2L283.5,132z M254.3,132h19.5V93.9L254.3,132z
			"/>
		<path class="st2" d="M347.2,159h-44.8v-7.3l22.9-30.3c2.8-3.6,5.2-7.4,7.2-11.5c1.3-3,2-6.2,2-9.5c0-4.3-1-7.7-3-10.3
			c-1.8-2.6-4.7-4.1-7.8-4c-4.1,0-7.2,1.4-9.5,4.2c-2.2,2.8-3.3,6.9-3.3,12.2H301c0-7.4,2-13.3,6.1-17.9c4-4.6,9.5-6.8,16.5-6.8
			c6.4,0,11.4,2,15.1,5.9c3.7,3.9,5.5,9.1,5.5,15.6c0,7.9-4.1,17.3-12.4,28.2L314,150.7h33.2L347.2,159z"/>
		<path class="st2" d="M400.9,124.8c0,11.8-1.7,20.7-5.2,26.5c-3.5,5.9-8.9,8.8-16.2,8.8c-7.2,0-12.5-2.8-16-8.4
			c-3.5-5.6-5.3-14.1-5.5-25.3v-13.8c0-11.7,1.7-20.5,5.2-26.2c3.5-5.8,8.9-8.6,16.2-8.7c7.2,0,12.6,2.7,16.1,8.2
			c3.5,5.5,5.3,13.8,5.5,24.8L400.9,124.8z M391.1,110.8c0-8.5-0.9-14.7-2.8-18.8c-1.9-4-4.9-6-9-6c-4,0-6.9,2-8.8,5.9
			s-2.8,9.9-2.9,17.9v16.5c0,8.4,1,14.8,2.9,19s4.9,6.3,8.9,6.4c4,0,6.9-2,8.8-6c1.8-4,2.8-10.1,2.9-18.3L391.1,110.8z"/>
		<path class="st2" d="M428.9,78.8l20.9,65.4l20.9-65.4h13V159h-10.1v-31.3l0.9-31.3l-21,62.5h-7.7l-20.9-62.3l0.9,31.1V159h-10.1
			V78.8H428.9z"/>
		<path class="st2" d="M285.3,188.1h1.1v1.1h-1.1v2.4H284v-2.4h-3.9v-0.8l3.8-7.1h1.3L285.3,188.1z M281.5,188.1h2.5v-4.9
			L281.5,188.1z"/>
		<path class="st2" d="M293.5,191.6h-5.8v-0.9l2.9-3.9c0.4-0.5,0.7-1,0.9-1.5c0.2-0.4,0.3-0.8,0.3-1.2c0-0.5-0.1-0.9-0.4-1.3
			c-0.2-0.3-0.6-0.5-1-0.5c-0.5,0-0.9,0.2-1.2,0.5c-0.3,0.5-0.5,1-0.4,1.6h-1.2c0-0.8,0.2-1.7,0.8-2.3c0.5-0.6,1.3-0.9,2.1-0.9
			c0.7,0,1.4,0.2,1.9,0.8c0.5,0.5,0.7,1.3,0.7,2c-0.1,1.3-0.7,2.6-1.6,3.6l-2.3,3h4.3L293.5,191.6z"/>
		<path class="st2" d="M300.4,187.2c0.1,1.2-0.2,2.3-0.7,3.4c-0.8,1.1-2.3,1.4-3.5,0.7c-0.3-0.2-0.5-0.4-0.7-0.7
			c-0.5-1-0.8-2.1-0.7-3.2v-1.8c-0.1-1.2,0.2-2.3,0.7-3.4c0.4-0.7,1.2-1.2,2.1-1.1c0.8-0.1,1.6,0.3,2.1,1c0.5,1,0.8,2.1,0.7,3.2
			L300.4,187.2z M299.1,185.4c0-0.8-0.1-1.6-0.4-2.4c-0.3-0.6-1-0.9-1.6-0.7c-0.3,0.1-0.5,0.4-0.7,0.7c-0.3,0.7-0.4,1.5-0.4,2.3v2.1
			c0,0.8,0.1,1.7,0.4,2.4c0.2,0.5,0.6,0.8,1.1,0.8c0.5,0,1-0.3,1.1-0.8c0.3-0.7,0.4-1.5,0.4-2.4V185.4z"/>
		<path class="st2" d="M306.6,183.9v0.7c0.4-0.6,1.1-0.9,1.8-0.9c0.8-0.1,1.5,0.4,1.8,1.1c0.4-0.7,1.2-1.1,2-1.1
			c1.4,0,2.1,0.9,2.2,2.6v5.2h-1.2v-5c0-0.4-0.1-0.9-0.3-1.2c-0.2-0.3-0.6-0.4-1-0.4c-0.4,0-0.7,0.2-0.9,0.4
			c-0.2,0.3-0.4,0.7-0.4,1.1v5.1h-1.3v-5.1c0-1.1-0.4-1.6-1.3-1.6c-0.6,0-1.2,0.4-1.3,0.9v5.7h-1.2v-7.7H306.6z"/>
		<path class="st2" d="M317.8,181.9c0,0.2-0.1,0.4-0.2,0.5c-0.1,0.2-0.3,0.2-0.5,0.2c-0.2,0-0.4-0.1-0.5-0.2
			c-0.1-0.1-0.2-0.3-0.2-0.5c0-0.2,0.1-0.4,0.2-0.5c0.1-0.1,0.3-0.2,0.5-0.2c0.2,0,0.4,0.1,0.5,0.2
			C317.7,181.5,317.8,181.7,317.8,181.9z M317.7,191.6h-1.3v-7.7h1.3V191.6z"/>
		<path class="st2" d="M321,191.6h-1.3v-10.9h1.3V191.6z"/>
		<path class="st2" d="M324.3,191.6h-1.2v-10.9h1.2V191.6z"/>
		<path class="st2" d="M327.8,181.9c0,0.2-0.1,0.4-0.2,0.5c-0.1,0.2-0.3,0.2-0.5,0.2c-0.2,0-0.4-0.1-0.5-0.2
			c-0.1-0.1-0.2-0.3-0.2-0.5c0-0.2,0.1-0.4,0.2-0.5c0.1-0.1,0.3-0.2,0.5-0.2c0.2,0,0.4,0.1,0.5,0.2
			C327.7,181.5,327.8,181.7,327.8,181.9z M327.7,191.6h-1.2v-7.7h1.2V191.6z"/>
		<path class="st2" d="M329.4,187.4c-0.1-0.9,0.2-1.9,0.8-2.6c0.5-0.7,1.3-1,2.1-1c0.8,0,1.6,0.4,2.1,1c0.6,0.7,0.9,1.6,0.8,2.6v0.8
			c0.1,0.9-0.2,1.9-0.8,2.6c-1.1,1.2-2.9,1.3-4.1,0.2c-0.1-0.1-0.1-0.1-0.2-0.2c-0.6-0.7-0.9-1.6-0.8-2.5L329.4,187.4z M330.6,188.1
			c0,0.7,0.1,1.3,0.5,1.9c0.3,0.4,0.7,0.7,1.2,0.7c1.1,0,1.7-0.8,1.7-2.4v-0.9c0-0.7-0.1-1.3-0.5-1.9c-0.3-0.4-0.7-0.7-1.2-0.7
			c-0.5,0-1,0.3-1.2,0.7c-0.3,0.6-0.5,1.2-0.5,1.9V188.1z"/>
		<path class="st2" d="M338.1,183.9v0.8c0.4-0.6,1.1-1,1.9-1c1.4,0,2,0.9,2.1,2.7v5.1h-1.2v-5c0-0.4-0.1-0.9-0.3-1.3
			c-0.2-0.3-0.6-0.4-0.9-0.4c-0.3,0-0.6,0.1-0.8,0.3c-0.3,0.2-0.5,0.5-0.6,0.8v5.6h-1.2v-7.7H338.1z"/>
		<path class="st2" d="M353,189.4l1.2-5.5h1.2l-1.9,7.7h-1l-1.5-5.5l-1.5,5.5h-1l-1.9-7.7h1.2l1.2,5.3l1.4-5.3h1L353,189.4z"/>
		<path class="st2" d="M356.4,187.4c-0.1-0.9,0.2-1.9,0.8-2.6c1-1.2,2.9-1.3,4-0.2c0.1,0.1,0.2,0.2,0.2,0.2c0.6,0.7,0.9,1.6,0.8,2.6
			v0.8c0.1,0.9-0.2,1.9-0.8,2.6c-1.1,1.2-2.9,1.3-4.1,0.2c-0.1-0.1-0.1-0.1-0.2-0.2c-0.6-0.7-0.9-1.6-0.8-2.5V187.4z M357.6,188.1
			c0,0.7,0.1,1.3,0.5,1.9c0.3,0.4,0.7,0.7,1.2,0.7c1.1,0,1.7-0.8,1.7-2.4v-0.9c0-0.7-0.1-1.3-0.5-1.9c-0.3-0.4-0.8-0.7-1.3-0.7
			c-0.5,0-1,0.3-1.2,0.7c-0.3,0.6-0.5,1.2-0.5,1.9V188.1z"/>
		<path class="st2" d="M365.1,183.9v0.8c0.4-0.6,1.1-1,1.9-1c1.4,0,2,0.9,2.1,2.7v5.1h-1.2v-5c0-0.4-0.1-0.9-0.3-1.3
			c-0.2-0.3-0.6-0.4-0.9-0.4c-0.3,0-0.6,0.1-0.8,0.3c-0.3,0.2-0.5,0.5-0.6,0.8v5.6h-1.2v-7.7H365.1z"/>
		<path class="st2" d="M370.5,184.2l-0.7-0.5c0.4-0.6,0.6-1.2,0.6-1.9v-1h1.2v1c0,0.5-0.1,0.9-0.3,1.4
			C371.2,183.5,370.9,183.9,370.5,184.2z"/>
		<path class="st2" d="M374.9,182.1v1.9h1.1v1h-1.1v4.8c0,0.2,0,0.5,0.1,0.7c0.1,0.2,0.3,0.3,0.5,0.2c0.2,0,0.3,0,0.5-0.1v1.1
			c-0.3,0.1-0.6,0.1-0.9,0.1c-0.4,0-0.9-0.2-1.1-0.5c-0.3-0.4-0.4-1-0.4-1.5V185h-1.2v-1h1.2v-1.9L374.9,182.1z"/>
		<path class="st2" d="M382.2,191.6h-1.2v-10.9h1.2V191.6z"/>
		<path class="st2" d="M386.9,191.7c-0.8,0.1-1.6-0.3-2.2-0.9c-0.6-0.7-0.8-1.6-0.8-2.5v-0.9c-0.1-1,0.2-1.9,0.8-2.7
			c0.5-0.7,1.3-1,2.1-1c0.8-0.1,1.5,0.3,2,0.9c0.5,0.8,0.7,1.7,0.7,2.7v0.8h-4.3v0.2c-0.1,0.6,0.1,1.3,0.5,1.8
			c0.3,0.4,0.8,0.6,1.3,0.6c0.3,0,0.7-0.1,1-0.2c0.3-0.2,0.6-0.4,0.8-0.7l0.6,0.8C388.8,191.4,387.8,191.8,386.9,191.7z
			 M386.7,184.9c-0.4,0-0.9,0.2-1.1,0.5c-0.3,0.5-0.4,1.1-0.4,1.7h3v-0.2c0-0.5-0.1-1.1-0.4-1.6C387.5,185,387.1,184.8,386.7,184.9z
			"/>
		<path class="st2" d="M394.9,191.6c-0.1-0.3-0.2-0.5-0.2-0.8c-0.3,0.6-1,1-1.7,1c-0.6,0-1.2-0.2-1.6-0.6c-0.4-0.4-0.6-1-0.6-1.6
			c0-0.7,0.3-1.4,0.8-1.9c0.6-0.5,1.4-0.7,2.2-0.7h0.9v-0.8c0.1-0.6-0.3-1.1-0.8-1.3c-0.1,0-0.3,0-0.4,0c-0.3,0-0.7,0.1-0.9,0.3
			c-0.2,0.2-0.4,0.5-0.4,0.9h-1.3c0-0.4,0.1-0.8,0.4-1.1c0.2-0.4,0.6-0.7,0.9-0.8c0.4-0.2,0.8-0.3,1.3-0.3c0.7,0,1.3,0.2,1.8,0.6
			c0.4,0.5,0.7,1.1,0.6,1.7v3.9c0,0.5,0.1,1,0.2,1.5v0.1L394.9,191.6z M393.2,190.6c0.3,0,0.6-0.1,0.9-0.3c0.3-0.2,0.5-0.4,0.6-0.6
			v-1.8H394c-0.5,0-1,0.1-1.4,0.4c-0.3,0.2-0.5,0.7-0.5,1.1c0,0.3,0.1,0.7,0.3,0.9C392.6,190.5,392.9,190.6,393.2,190.6L393.2,190.6
			z"/>
		<path class="st2" d="M401,185.1c-0.2,0-0.4,0-0.6-0.1c-0.6,0-1.2,0.4-1.4,1.1v5.5h-1.2v-7.7h1.2v0.8c0.3-0.6,0.8-0.9,1.4-0.9
			c0.2,0,0.3,0,0.5,0.1L401,185.1z"/>
		<path class="st2" d="M403.5,183.9v0.8c0.4-0.6,1.1-1,1.9-1c1.4,0,2,0.9,2.1,2.7v5.1h-1.2v-5c0-0.4-0.1-0.9-0.3-1.3
			c-0.2-0.3-0.6-0.4-0.9-0.4c-0.3,0-0.6,0.1-0.8,0.3c-0.3,0.2-0.5,0.5-0.6,0.8v5.6h-1.2v-7.7H403.5z"/>
		<path class="st2" d="M414.2,182.1v1.9h1.2v1h-1.2v4.8c0,0.2,0,0.5,0.1,0.7c0.1,0.2,0.3,0.3,0.5,0.2c0.2,0,0.3,0,0.5-0.1v1.1
			c-0.3,0.1-0.6,0.1-0.9,0.1c-0.4,0-0.9-0.2-1.1-0.5c-0.3-0.4-0.4-1-0.4-1.5V185h-1.2v-1h1.2v-1.9L414.2,182.1z"/>
		<path class="st2" d="M418.1,184.7c0.4-0.6,1.1-0.9,1.8-0.9c1.4,0,2,0.9,2.1,2.7v5.1h-1.2v-5c0-0.4-0.1-0.9-0.3-1.3
			c-0.2-0.3-0.6-0.4-0.9-0.4c-0.3,0-0.6,0.1-0.8,0.3c-0.3,0.2-0.5,0.5-0.6,0.8v5.6h-1.3v-10.9h1.3L418.1,184.7z"/>
		<path class="st2" d="M426.6,191.7c-0.8,0.1-1.6-0.3-2.2-0.9c-0.6-0.7-0.8-1.6-0.8-2.5v-0.9c-0.1-1,0.2-1.9,0.8-2.7
			c0.5-0.7,1.3-1,2.1-1c0.8-0.1,1.5,0.3,2,0.9c0.5,0.8,0.7,1.7,0.7,2.7v0.8h-4.3v0.2c-0.1,0.6,0.1,1.3,0.5,1.8
			c0.3,0.4,0.8,0.6,1.3,0.6c0.3,0,0.7-0.1,1-0.2c0.3-0.2,0.6-0.4,0.8-0.7l0.6,0.8C428.5,191.4,427.6,191.8,426.6,191.7z
			 M426.5,184.9c-0.4,0-0.9,0.2-1.1,0.5c-0.3,0.5-0.4,1.1-0.4,1.7h3v-0.2c0-0.5-0.1-1.1-0.4-1.6C427.3,185,426.9,184.8,426.5,184.9
			L426.5,184.9z"/>
		<path class="st2" d="M281.8,207.1v0.7c0.4-0.6,1.1-0.9,1.9-0.9c0.8,0,1.5,0.4,1.8,1.1c0.4-0.7,1.2-1.1,2-1.1
			c1.4,0,2.1,0.9,2.2,2.6v5.2h-1.2v-5c0-0.4-0.1-0.9-0.3-1.2c-0.2-0.3-0.6-0.5-1-0.4c-0.4,0-0.7,0.2-0.9,0.4
			c-0.3,0.3-0.4,0.7-0.4,1.1v5.1h-1.3v-5.1c0-1.1-0.4-1.6-1.3-1.6c-0.6,0-1.2,0.4-1.3,1v5.7h-1.2v-7.7L281.8,207.1z"/>
		<path class="st2" d="M291.3,210.6c0-0.9,0.2-1.9,0.8-2.6c0.5-0.7,1.3-1,2.1-1c0.8,0,1.6,0.3,2.1,0.9c0.6,0.7,0.9,1.6,0.8,2.6v0.8
			c0,0.9-0.2,1.9-0.8,2.6c-1.1,1.2-2.9,1.3-4.1,0.2c-0.1-0.1-0.1-0.1-0.2-0.2c-0.6-0.7-0.9-1.6-0.8-2.6L291.3,210.6z M292.6,211.3
			c0,0.6,0.1,1.3,0.5,1.9c0.3,0.4,0.7,0.7,1.2,0.7c1.1,0,1.7-0.8,1.7-2.4v-0.9c0-0.6-0.1-1.3-0.5-1.9c-0.3-0.4-0.7-0.7-1.2-0.7
			c-0.5,0-1,0.3-1.2,0.7c-0.3,0.6-0.5,1.2-0.5,1.9V211.3z"/>
		<path class="st2" d="M302.6,212.8c0-0.3-0.1-0.5-0.3-0.7c-0.4-0.3-0.7-0.5-1.2-0.7c-0.5-0.2-1-0.4-1.4-0.7
			c-0.3-0.2-0.5-0.4-0.6-0.7c-0.1-0.3-0.2-0.6-0.2-0.9c0-0.6,0.2-1.2,0.7-1.6c1-0.8,2.5-0.8,3.5,0c0.5,0.4,0.7,1,0.7,1.7h-1.2
			c0-0.3-0.1-0.6-0.4-0.9c-0.2-0.2-0.6-0.4-0.9-0.4c-0.3,0-0.6,0.1-0.9,0.3c-0.2,0.2-0.3,0.5-0.3,0.8c0,0.2,0.1,0.5,0.2,0.6
			c0.3,0.3,0.7,0.5,1.1,0.6c0.7,0.2,1.3,0.6,1.9,1.1c0.3,0.4,0.5,0.8,0.5,1.3c0,0.6-0.2,1.2-0.7,1.6c-0.5,0.4-1.2,0.6-1.8,0.6
			c-0.7,0-1.4-0.2-1.9-0.7c-0.5-0.4-0.8-1.1-0.7-1.7h1.3c0,0.4,0.1,0.7,0.4,1c0.6,0.5,1.4,0.5,2,0.1
			C302.5,213.4,302.6,213.1,302.6,212.8z"/>
		<path class="st2" d="M307.1,205.3v1.9h1.1v1h-1.1v4.8c0,0.2,0,0.5,0.1,0.7c0.1,0.2,0.3,0.3,0.5,0.2c0.2,0,0.3,0,0.5-0.1v1.1
			c-0.3,0.1-0.6,0.1-0.9,0.1c-0.4,0-0.9-0.2-1.1-0.5c-0.3-0.4-0.4-1-0.4-1.5v-4.8h-1.2v-1h1.2v-1.9H307.1z"/>
		<path class="st2" d="M318.6,211.3c0.1,0.9-0.1,1.9-0.6,2.7c-0.4,0.6-1.1,1-1.9,0.9c-0.8,0-1.5-0.4-1.8-1.1l-0.1,0.9h-1.1v-10.9
			h1.2v4.1c0.4-0.6,1-1,1.8-1c0.7,0,1.5,0.3,1.9,0.9c0.5,0.8,0.7,1.7,0.6,2.7L318.6,211.3z M317.4,210.6c0.1-0.7-0.1-1.3-0.4-1.9
			c-0.3-0.4-0.7-0.6-1.2-0.6c-0.7,0-1.2,0.4-1.5,1.1v3.6c0.2,0.6,0.8,1,1.5,1c0.5,0,1-0.2,1.2-0.6c0.3-0.6,0.4-1.2,0.4-1.8
			L317.4,210.6z"/>
		<path class="st2" d="M324.1,214.8c-0.1-0.3-0.1-0.5-0.1-0.8c-0.4,0.6-1,1-1.7,1c-0.6,0-1.2-0.2-1.6-0.6c-0.4-0.5-0.6-1-0.6-1.6
			c0-0.7,0.3-1.4,0.8-1.9c0.6-0.5,1.4-0.7,2.2-0.7h0.9v-0.8c0-0.4-0.1-0.7-0.3-1c-0.6-0.4-1.3-0.4-1.9,0.1c-0.2,0.2-0.4,0.5-0.4,0.9
			h-1.3c0-0.4,0.1-0.8,0.3-1.1c0.2-0.4,0.6-0.6,0.9-0.8c0.4-0.2,0.9-0.3,1.3-0.3c0.6,0,1.3,0.2,1.8,0.6c0.4,0.5,0.7,1.1,0.6,1.7v3.9
			c0,0.5,0.1,1,0.2,1.5v0.1L324.1,214.8z M322.5,213.8c0.3,0,0.6-0.1,0.9-0.3c0.3-0.1,0.5-0.4,0.6-0.6v-1.8h-0.7
			c-0.5,0-1,0.1-1.4,0.4c-0.3,0.3-0.5,0.7-0.5,1.1c0,0.3,0.1,0.7,0.3,0.9C321.8,213.7,322.1,213.8,322.5,213.8z"/>
		<path class="st2" d="M330.9,212.8c0-0.3-0.1-0.5-0.3-0.7c-0.4-0.3-0.8-0.5-1.2-0.7c-0.5-0.2-1-0.4-1.4-0.7
			c-0.3-0.2-0.5-0.4-0.6-0.7c-0.1-0.3-0.2-0.6-0.2-0.9c0-0.6,0.2-1.2,0.7-1.6c1-0.8,2.5-0.8,3.5,0c0.5,0.4,0.7,1,0.7,1.7h-1.2
			c0-0.3-0.1-0.6-0.3-0.9c-0.2-0.2-0.6-0.4-0.9-0.4c-0.3,0-0.6,0.1-0.9,0.3c-0.2,0.2-0.3,0.5-0.3,0.8c0,0.2,0.1,0.5,0.2,0.6
			c0.3,0.3,0.7,0.5,1.1,0.6c0.7,0.2,1.3,0.6,1.9,1.1c0.3,0.4,0.5,0.8,0.5,1.3c0,0.6-0.2,1.2-0.7,1.6c-0.5,0.4-1.2,0.6-1.8,0.6
			c-0.7,0-1.4-0.2-1.9-0.7c-0.5-0.4-0.8-1.1-0.7-1.7h1.3c0,0.4,0.1,0.7,0.4,1c0.6,0.5,1.4,0.5,2,0.1
			C330.8,213.4,330.9,213.1,330.9,212.8z"/>
		<path class="st2" d="M335.2,205.1c0,0.2-0.1,0.4-0.2,0.5c-0.1,0.1-0.3,0.2-0.5,0.2c-0.2,0-0.4-0.1-0.5-0.2
			c-0.1-0.1-0.2-0.3-0.2-0.5c0-0.2,0.1-0.4,0.2-0.5c0.1-0.2,0.3-0.2,0.5-0.2c0.2,0,0.4,0.1,0.5,0.2
			C335.1,204.7,335.2,204.9,335.2,205.1z M335.1,214.8h-1.3v-7.7h1.3V214.8z"/>
		<path class="st2" d="M339.7,213.9c0.4,0,0.7-0.1,1-0.4c0.3-0.3,0.4-0.7,0.4-1.1h1.2c0,0.7-0.3,1.3-0.8,1.8
			c-0.5,0.5-1.1,0.7-1.8,0.7c-0.8,0.1-1.6-0.3-2.2-0.9c-0.6-0.8-0.8-1.7-0.8-2.7v-0.8c-0.1-0.9,0.2-1.9,0.7-2.6
			c0.5-0.6,1.3-1,2.2-0.9c0.7,0,1.4,0.2,1.9,0.7c0.5,0.6,0.7,1.3,0.7,2h-1.2c0-0.5-0.1-0.9-0.4-1.3c-0.2-0.3-0.6-0.4-1-0.4
			c-0.5,0-0.9,0.2-1.2,0.6c-0.3,0.5-0.5,1.2-0.4,1.8v1c-0.1,0.7,0.1,1.3,0.4,1.9C338.8,213.7,339.2,213.9,339.7,213.9z"/>
		<path class="st2" d="M350.8,212.8c0-0.3-0.1-0.5-0.3-0.7c-0.4-0.3-0.8-0.5-1.2-0.7c-0.5-0.2-1-0.4-1.4-0.7
			c-0.3-0.2-0.5-0.4-0.6-0.7c-0.1-0.3-0.2-0.6-0.2-0.9c0-0.6,0.2-1.2,0.7-1.6c1-0.8,2.5-0.8,3.5,0c0.5,0.4,0.7,1,0.7,1.7h-1.2
			c0-0.3-0.1-0.6-0.3-0.9c-0.2-0.2-0.6-0.4-0.9-0.4c-0.3,0-0.6,0.1-0.9,0.3c-0.2,0.2-0.3,0.5-0.3,0.8c0,0.2,0.1,0.5,0.2,0.6
			c0.3,0.3,0.7,0.5,1.1,0.6c0.7,0.2,1.3,0.6,1.9,1.1c0.3,0.4,0.5,0.8,0.5,1.3c0,0.6-0.2,1.2-0.7,1.6c-0.5,0.4-1.2,0.6-1.8,0.6
			c-0.7,0-1.4-0.2-1.9-0.7c-0.5-0.4-0.8-1.1-0.7-1.7h1.3c0,0.4,0.1,0.7,0.4,1c0.6,0.5,1.4,0.5,2,0.1
			C350.7,213.4,350.8,213.1,350.8,212.8z"/>
		<path class="st2" d="M355.6,211.3l-0.7,0.8v2.7h-1.3v-10.9h1.3v6.5l2.4-3.3h1.5l-2.4,3.2l2.8,4.5h-1.5L355.6,211.3z"/>
		<path class="st2" d="M361.7,205.1c0,0.2-0.1,0.4-0.2,0.5c-0.1,0.1-0.3,0.2-0.5,0.2c-0.2,0-0.4-0.1-0.5-0.2
			c-0.1-0.2-0.2-0.3-0.2-0.5c0-0.2,0.1-0.4,0.2-0.5c0.1-0.2,0.3-0.2,0.5-0.2c0.2,0,0.4,0.1,0.5,0.2
			C361.6,204.7,361.7,204.9,361.7,205.1z M361.6,214.8h-1.2v-7.7h1.2V214.8z"/>
		<path class="st2" d="M364.9,214.8h-1.2v-10.9h1.2V214.8z"/>
		<path class="st2" d="M368.2,214.8H367v-10.9h1.2L368.2,214.8z"/>
		<path class="st2" d="M373.9,212.8c0-0.3-0.1-0.5-0.3-0.7c-0.4-0.3-0.8-0.5-1.2-0.7c-0.5-0.2-1-0.4-1.4-0.7
			c-0.3-0.2-0.5-0.4-0.6-0.7c-0.1-0.3-0.2-0.6-0.2-0.9c0-0.6,0.2-1.2,0.7-1.6c1-0.8,2.5-0.8,3.5,0c0.5,0.4,0.7,1,0.7,1.7h-1.2
			c0-0.3-0.1-0.6-0.4-0.9c-0.2-0.2-0.5-0.4-0.9-0.4c-0.3,0-0.6,0.1-0.9,0.3c-0.2,0.2-0.3,0.5-0.3,0.8c0,0.2,0.1,0.5,0.2,0.6
			c0.3,0.3,0.7,0.5,1.1,0.6c0.7,0.2,1.3,0.6,1.9,1.1c0.3,0.4,0.5,0.8,0.5,1.3c0,0.6-0.2,1.2-0.7,1.6c-1.1,0.8-2.7,0.8-3.8-0.1
			c-0.5-0.4-0.8-1.1-0.8-1.7h1.3c0,0.4,0.1,0.7,0.4,1c0.3,0.2,0.6,0.4,1,0.4c0.3,0,0.7-0.1,0.9-0.3
			C373.8,213.4,373.9,213.1,373.9,212.8z"/>
		<path class="st2" d="M381.7,205.3v1.9h1.2v1h-1.2v4.8c0,0.2,0,0.5,0.1,0.7c0.1,0.2,0.3,0.3,0.5,0.2c0.2,0,0.3,0,0.5-0.1v1.1
			c-0.3,0.1-0.6,0.1-0.9,0.1c-0.4,0-0.9-0.2-1.1-0.5c-0.3-0.4-0.4-1-0.4-1.5v-4.8h-1.2v-1h1.2v-1.9H381.7z"/>
		<path class="st2" d="M384,210.6c-0.1-0.9,0.2-1.9,0.8-2.6c1.1-1.2,2.9-1.3,4.1-0.2c0.1,0.1,0.2,0.1,0.2,0.2
			c0.6,0.7,0.9,1.6,0.8,2.6v0.8c0.1,0.9-0.2,1.9-0.8,2.6c-1.1,1.2-2.9,1.3-4.1,0.2c-0.1-0.1-0.1-0.1-0.2-0.2
			c-0.6-0.7-0.9-1.6-0.8-2.6V210.6z M385.2,211.3c0,0.6,0.1,1.3,0.5,1.9c0.3,0.4,0.7,0.7,1.2,0.7c1.1,0,1.7-0.8,1.7-2.4v-0.9
			c0-0.7-0.1-1.3-0.5-1.9c-0.3-0.4-0.7-0.7-1.2-0.7c-0.5,0-1,0.3-1.2,0.7c-0.3,0.6-0.5,1.2-0.5,1.9V211.3z"/>
		<path class="st2" d="M398.6,212.8c0-0.3-0.1-0.5-0.3-0.7c-0.4-0.3-0.8-0.5-1.2-0.7c-0.5-0.2-1-0.4-1.4-0.7
			c-0.3-0.2-0.5-0.4-0.6-0.7c-0.1-0.3-0.2-0.6-0.2-0.9c0-0.6,0.2-1.2,0.7-1.6c1-0.8,2.5-0.8,3.5,0c0.5,0.4,0.7,1,0.7,1.7h-1.2
			c0-0.3-0.1-0.6-0.4-0.9c-0.2-0.2-0.5-0.4-0.9-0.4c-0.3,0-0.6,0.1-0.9,0.3c-0.2,0.2-0.3,0.5-0.3,0.8c0,0.2,0.1,0.5,0.2,0.6
			c0.3,0.3,0.7,0.5,1.1,0.6c0.7,0.2,1.3,0.6,1.9,1.1c0.3,0.4,0.5,0.8,0.5,1.3c0,0.6-0.2,1.2-0.7,1.6c-1.1,0.8-2.7,0.8-3.8-0.1
			c-0.5-0.4-0.8-1.1-0.8-1.7h1.3c0,0.4,0.1,0.7,0.4,1c0.3,0.2,0.6,0.4,1,0.4c0.3,0,0.7-0.1,0.9-0.3
			C398.4,213.4,398.6,213.1,398.6,212.8z"/>
		<path class="st2" d="M405.4,214.1c-0.4,0.6-1.1,0.9-1.8,0.8c-0.6,0-1.2-0.2-1.6-0.7c-0.4-0.6-0.6-1.4-0.5-2.1v-5h1.2v4.9
			c0,1.2,0.4,1.8,1.1,1.8c0.7,0,1.3-0.4,1.6-1v-5.7h1.3v7.7h-1.2L405.4,214.1z"/>
		<path class="st2" d="M411.1,213.9c0.4,0,0.7-0.1,1-0.4c0.3-0.3,0.4-0.7,0.4-1.1h1.2c0,0.7-0.3,1.3-0.8,1.8
			c-0.5,0.5-1.1,0.7-1.8,0.7c-0.8,0.1-1.6-0.3-2.2-0.9c-0.6-0.8-0.8-1.7-0.8-2.7v-0.8c-0.1-0.9,0.2-1.9,0.8-2.6
			c0.5-0.6,1.3-1,2.2-0.9c0.7,0,1.4,0.2,1.9,0.7c0.5,0.6,0.7,1.3,0.7,2h-1.2c0-0.5-0.1-0.9-0.4-1.3c-0.2-0.3-0.6-0.4-1-0.4
			c-0.5,0-0.9,0.2-1.2,0.6c-0.3,0.5-0.4,1.2-0.4,1.8v1c-0.1,0.7,0.1,1.3,0.4,1.9C410.2,213.7,410.6,213.9,411.1,213.9z"/>
		<path class="st2" d="M417.8,213.9c0.4,0,0.7-0.1,1-0.4c0.3-0.3,0.4-0.7,0.4-1.1h1.2c0,0.7-0.3,1.3-0.8,1.8
			c-0.5,0.5-1.1,0.7-1.8,0.7c-0.8,0.1-1.6-0.3-2.2-0.9c-0.6-0.8-0.8-1.7-0.8-2.7v-0.8c-0.1-0.9,0.2-1.9,0.7-2.6
			c0.5-0.6,1.3-1,2.2-0.9c0.7,0,1.4,0.2,1.9,0.7c0.5,0.6,0.7,1.3,0.7,2h-1.2c0-0.5-0.1-0.9-0.4-1.3c-0.2-0.3-0.6-0.4-1-0.4
			c-0.5,0-0.9,0.2-1.2,0.6c-0.3,0.5-0.5,1.2-0.4,1.8v1c-0.1,0.7,0.1,1.3,0.4,1.9C416.9,213.7,417.3,213.9,417.8,213.9z"/>
		<path class="st2" d="M424.6,214.9c-0.8,0.1-1.6-0.3-2.2-0.9c-0.6-0.7-0.8-1.6-0.8-2.5v-0.9c-0.1-1,0.2-1.9,0.7-2.7
			c0.5-0.7,1.3-1,2.1-1c0.8-0.1,1.5,0.3,2,0.9c0.5,0.8,0.7,1.7,0.7,2.7v0.8h-4.3v0.2c-0.1,0.6,0.1,1.3,0.5,1.8
			c0.3,0.4,0.8,0.6,1.3,0.6c0.3,0,0.7-0.1,1-0.2c0.3-0.2,0.6-0.4,0.8-0.7l0.7,0.8C426.5,214.6,425.6,215,424.6,214.9z M424.4,208.1
			c-0.5,0-0.9,0.2-1.1,0.5c-0.3,0.5-0.4,1.1-0.4,1.7h3v-0.2c0-0.5-0.1-1.1-0.4-1.6C425.2,208.2,424.8,208,424.4,208.1L424.4,208.1z"
			/>
		<path class="st2" d="M431.4,214.9c-0.8,0.1-1.6-0.3-2.2-0.9c-0.5-0.7-0.8-1.6-0.8-2.5v-0.9c-0.1-1,0.2-1.9,0.7-2.7
			c0.5-0.7,1.3-1,2.1-1c0.8-0.1,1.5,0.3,2,0.9c0.5,0.8,0.7,1.7,0.7,2.7v0.8h-4.3v0.2c-0.1,0.6,0.1,1.3,0.5,1.8
			c0.3,0.4,0.8,0.6,1.3,0.6c0.3,0,0.7-0.1,1-0.2c0.3-0.2,0.6-0.4,0.8-0.7l0.6,0.8C433.3,214.6,432.4,215,431.4,214.9z M431.2,208.1
			c-0.5,0-0.9,0.2-1.2,0.5c-0.3,0.5-0.4,1.1-0.4,1.7h3v-0.2c0-0.5-0.1-1.1-0.4-1.6C432,208.2,431.6,208,431.2,208.1L431.2,208.1z"/>
		<path class="st2" d="M435.2,210.6c-0.1-0.9,0.2-1.9,0.7-2.7c0.4-0.6,1.2-1,1.9-0.9c0.7,0,1.3,0.3,1.7,0.9v-4h1.2v10.9h-1.1
			l-0.1-0.8c-0.4,0.6-1,1-1.8,1c-0.7,0-1.4-0.3-1.9-0.9c-0.5-0.8-0.7-1.7-0.7-2.6L435.2,210.6z M436.4,211.3c0,0.7,0.1,1.3,0.4,1.9
			c0.3,0.4,0.8,0.7,1.2,0.6c0.6,0,1.2-0.4,1.4-0.9V209c-0.2-0.6-0.8-0.9-1.4-0.9c-0.5,0-1,0.2-1.2,0.6c-0.3,0.6-0.4,1.2-0.4,1.9
			V211.3z"/>
		<path class="st2" d="M442.7,214.1c0-0.2,0.1-0.4,0.2-0.6c0.2-0.2,0.4-0.2,0.6-0.2c0.2,0,0.4,0.1,0.6,0.2c0.1,0.2,0.2,0.4,0.2,0.6
			c0,0.2-0.1,0.4-0.2,0.6c-0.2,0.2-0.4,0.2-0.6,0.2c-0.2,0-0.4-0.1-0.6-0.2C442.8,214.5,442.7,214.3,442.7,214.1z"/>
	</g>
</g>
</svg>
